<svg xmlns="http://www.w3.org/2000/svg" width="136.913" height="136.914" xml:space="preserve"><circle fill="#65A844" cx="68.457" cy="68.457" r="63.333"/><path fill="#E9DEC3" d="M95.499 45.342c-6.525-7.627-16.215-12.469-27.041-12.469-19.652 0-35.584 15.932-35.584 35.584 0 11.139 5.123 21.078 13.135 27.602a35.42 35.42 0 0 0 22.449 7.98c19.652 0 35.582-15.93 35.582-35.582 0-8.828-3.219-16.896-8.541-23.115z"/><path fill="#F6EDDC" d="M84.909 85.133c11.174-11.172 14.83-26.77 10.641-39.791-6.527-7.627-16.215-12.469-27.041-12.469-19.652 0-35.584 15.932-35.584 35.584 0 11.139 5.121 21.078 13.135 27.602 12.823 3.724 27.944-.022 38.849-10.926z"/><path fill="#8E7D5C" d="M98.165 48.883a35.625 35.625 0 0 0-.982-1.406c-5.906 2.305-17.76 6.324-28.627 6.324-10.453 0-22.486-3.717-29.023-6.057-.334.467-.656.941-.969 1.424 6.549 2.365 19.08 6.301 29.992 6.301 11.361 0 23.718-4.264 29.609-6.586z"/><circle fill="#3A3A39" cx="85.547" cy="48.486" r="1.438"/><circle fill="#3A3A39" cx="85.547" cy="55.189" r="1.438"/><path fill="#DC3735" d="M85.709 55.861a.835.835 0 0 1-.701-1.287c.273-.422.98-1.713.98-2.607 0-.922-.746-2.465-1.008-2.934a.834.834 0 0 1 1.457-.815c.125.225 1.221 2.229 1.221 3.748 0 1.547-1.119 3.318-1.248 3.516a.83.83 0 0 1-.701.379z"/><circle fill="#3A3A39" cx="50.764" cy="48.863" r="1.438"/><circle fill="#3A3A39" cx="50.764" cy="55.566" r="1.438"/><path fill="#DC3735" d="M50.926 56.238a.835.835 0 0 1-.701-1.287c.273-.422.979-1.713.979-2.607 0-.922-.744-2.465-1.006-2.934a.834.834 0 0 1 1.457-.815c.125.225 1.219 2.229 1.219 3.748 0 1.547-1.119 3.318-1.246 3.516a.836.836 0 0 1-.702.379z"/><circle fill="#3A3A39" cx="93.689" cy="46.371" r="1.438"/><circle fill="#3A3A39" cx="93.689" cy="53.074" r="1.438"/><path fill="#DC3735" d="M93.852 53.746a.832.832 0 0 1-.701-1.287c.273-.422.979-1.713.979-2.609 0-.92-.746-2.463-1.006-2.932a.836.836 0 0 1 .32-1.137.838.838 0 0 1 1.137.322c.125.225 1.219 2.229 1.219 3.746 0 1.549-1.119 3.32-1.246 3.518a.838.838 0 0 1-.702.379z"/><g><circle fill="#3A3A39" cx="42.65" cy="46.609" r="1.438"/><path fill="#3A3A39" d="M44.088 53.313a1.44 1.44 0 0 1-2.878 0 1.438 1.438 0 0 1 2.878 0z"/><path fill="#DC3735" d="M42.813 53.984a.832.832 0 0 1-.701-1.287c.271-.422.979-1.713.979-2.609 0-.92-.746-2.463-1.006-2.932a.835.835 0 1 1 1.457-.815c.125.225 1.219 2.229 1.219 3.746 0 1.549-1.119 3.32-1.246 3.518a.837.837 0 0 1-.702.379z"/></g><g><circle fill="#3A3A39" cx="67.541" cy="50.922" r="1.438"/><circle fill="#3A3A39" cx="67.541" cy="57.625" r="1.438"/><path fill="#DC3735" d="M67.704 58.299a.835.835 0 0 1-.701-1.289c.273-.422.979-1.713.979-2.607 0-.92-.744-2.465-1.006-2.934a.834.834 0 1 1 1.457-.813c.125.225 1.219 2.229 1.219 3.746 0 1.547-1.119 3.318-1.246 3.516a.839.839 0 0 1-.702.381z"/></g><g><circle fill="#3A3A39" cx="77.157" cy="50.422" r="1.438"/><circle fill="#3A3A39" cx="77.157" cy="57.125" r="1.438"/><path fill="#DC3735" d="M77.321 57.797a.832.832 0 0 1-.701-1.287c.271-.422.979-1.713.979-2.609 0-.92-.746-2.463-1.006-2.932a.834.834 0 1 1 1.457-.815c.125.225 1.219 2.229 1.219 3.746 0 1.549-1.119 3.32-1.248 3.518a.836.836 0 0 1-.7.379z"/></g><g><circle fill="#3A3A39" cx="58.161" cy="50.422" r="1.438"/><circle fill="#3A3A39" cx="58.161" cy="57.125" r="1.438"/><path fill="#DC3735" d="M58.323 57.797a.837.837 0 0 1-.701-1.287c.273-.422.98-1.713.98-2.609 0-.92-.746-2.463-1.008-2.932a.837.837 0 0 1 1.459-.815c.125.225 1.219 2.229 1.219 3.746 0 1.549-1.121 3.32-1.248 3.518a.832.832 0 0 1-.701.379z"/></g><g><path fill="#8E7D5C" d="M67.129 81.115c-10.865 0-22.643 3.9-28.803 6.273.305.482.625.955.951 1.422 6.125-2.338 17.443-6.025 27.852-6.025 11.113 0 24.006 4.197 30.186 6.479.336-.465.66-.939.975-1.42-6.129-2.281-19.563-6.729-31.161-6.729z"/><circle fill="#3A3A39" cx="50.763" cy="87.848" r="1.438"/><circle fill="#3A3A39" cx="50.763" cy="81.145" r="1.438"/><path fill="#DC3735" d="M50.6 80.473a.82.82 0 0 1 .453.135c.389.25.498.766.248 1.154-.271.422-.979 1.713-.979 2.607 0 .92.746 2.465 1.006 2.932a.836.836 0 1 1-1.457.815c-.125-.223-1.219-2.227-1.219-3.746 0-1.549 1.119-3.318 1.248-3.516a.83.83 0 0 1 .7-.381z"/><circle fill="#3A3A39" cx="85.875" cy="87.973" r="1.438"/><circle fill="#3A3A39" cx="85.875" cy="81.27" r="1.438"/><path fill="#DC3735" d="M85.713 80.598a.835.835 0 0 1 .701 1.289c-.273.422-.979 1.713-.979 2.607 0 .92.744 2.465 1.006 2.932a.837.837 0 0 1-.322 1.137.833.833 0 0 1-1.135-.322c-.125-.223-1.219-2.227-1.219-3.746 0-1.549 1.119-3.318 1.246-3.516a.837.837 0 0 1 .702-.381z"/><circle fill="#3A3A39" cx="42.872" cy="90.213" r="1.438"/><circle fill="#3A3A39" cx="42.872" cy="83.512" r="1.438"/><path fill="#DC3735" d="M42.709 82.838a.837.837 0 0 1 .701 1.289c-.273.422-.98 1.713-.98 2.607 0 .92.746 2.465 1.008 2.932a.836.836 0 0 1-1.459.815c-.125-.223-1.219-2.227-1.219-3.746 0-1.547 1.121-3.318 1.248-3.516a.836.836 0 0 1 .701-.381z"/><g><circle fill="#3A3A39" cx="94.17" cy="90.367" r="1.438"/><path fill="#3A3A39" d="M92.733 83.664a1.44 1.44 0 0 1 1.438-1.438 1.438 1.438 0 1 1-1.438 1.438z"/><path fill="#DC3735" d="M94.008 82.992a.835.835 0 0 1 .701 1.287c-.273.422-.98 1.713-.98 2.609 0 .92.746 2.463 1.008 2.932.225.402.08.91-.322 1.137a.84.84 0 0 1-1.137-.322c-.125-.225-1.219-2.229-1.219-3.746 0-1.549 1.121-3.32 1.248-3.518a.834.834 0 0 1 .701-.379z"/></g><g><circle fill="#3A3A39" cx="68.145" cy="85.662" r="1.438"/><circle fill="#3A3A39" cx="68.145" cy="78.959" r="1.438"/><path fill="#DC3735" d="M67.983 78.287a.837.837 0 0 1 .701 1.287c-.273.422-.98 1.713-.98 2.607 0 .922.746 2.465 1.008 2.934a.837.837 0 0 1-.322 1.137.84.84 0 0 1-1.137-.322c-.123-.225-1.219-2.229-1.219-3.748 0-1.547 1.121-3.318 1.248-3.514a.83.83 0 0 1 .701-.381z"/></g><g><circle fill="#3A3A39" cx="59.404" cy="85.787" r="1.438"/><circle fill="#3A3A39" cx="59.404" cy="79.086" r="1.438"/><path fill="#DC3735" d="M59.241 78.412a.837.837 0 0 1 .701 1.289c-.273.422-.98 1.713-.98 2.607 0 .92.746 2.465 1.008 2.932a.836.836 0 0 1-1.457.817c-.125-.225-1.221-2.229-1.221-3.748 0-1.547 1.121-3.318 1.248-3.516a.835.835 0 0 1 .701-.381z"/></g><g><circle fill="#3A3A39" cx="77.098" cy="85.883" r="1.438"/><circle fill="#3A3A39" cx="77.098" cy="79.18" r="1.438"/><path fill="#DC3735" d="M76.936 78.508a.837.837 0 0 1 .701 1.287c-.273.422-.98 1.713-.98 2.609 0 .92.746 2.463 1.008 2.932a.837.837 0 0 1-1.459.815c-.125-.225-1.219-2.229-1.219-3.746 0-1.549 1.121-3.32 1.248-3.518a.832.832 0 0 1 .701-.379z"/></g></g></svg>