<svg xmlns="http://www.w3.org/2000/svg" width="136.914" height="136.913" xml:space="preserve"><circle fill="#357180" cx="68.457" cy="68.455" r="63.333"/><path fill="#E84849" d="M106.958 80.779c0 3.314-6.936 6-10.25 6l-21-.092v-31.75c0-3.314 3.188-6 6.5-6h14.5a6 6 0 0 1 6 6l4.25 25.842z"/><path fill="#9DDAEC" d="m100.208 65.842-20.043-.07V55.688c0-2.572.973-3.262 3.543-3.262h11.75c2.572 0 3.25 1.012 3.453 3.262l1.297 10.154z"/><path fill="#D5D6D5" d="M76.458 86.779H33.014a7.556 7.556 0 0 1-7.556-7.555V48.492c0-4.172 3.383-5.555 7.556-5.555h35.889c4.172 0 7.555 1.383 7.555 5.555v38.287z"/><path fill="#CECBCB" d="M76.458 86.779H33.014a7.556 7.556 0 0 1-7.556-7.555v-28.87c0-4.172 51-4.172 51 0v36.425z"/><path fill="#E84849" d="M111.458 82.336a4.444 4.444 0 0 1-4.443 4.443H85.903a4.444 4.444 0 0 1-4.445-4.443V70.438a4.444 4.444 0 0 1 4.445-4.443h21.111a4.444 4.444 0 0 1 4.443 4.443v11.898z"/><path fill="#CECBCB" d="M115.458 85.936a2.343 2.343 0 0 1-2.344 2.344H25.803a2.344 2.344 0 0 1-2.345-2.344v-2.959a2.346 2.346 0 0 1 2.345-2.346h87.311a2.345 2.345 0 0 1 2.344 2.346v2.959z"/><path fill="#E84849" d="M104.469 85.936a2.345 2.345 0 0 1-2.346 2.344h-76.32a2.344 2.344 0 0 1-2.345-2.344v-3.439a2.344 2.344 0 0 1 2.345-2.344h76.321a2.345 2.345 0 0 1 2.346 2.344v3.439z"/><circle fill="#202121" cx="93.859" cy="91.236" r="9.845"/><circle fill="#5E5F5E" cx="93.859" cy="91.236" r="5.856"/><circle fill="#A19F9F" cx="93.86" cy="91.234" r="2.189"/><g><circle fill="#202121" cx="46.859" cy="91.236" r="9.845"/><path fill="#5E5F5E" d="M52.715 91.236a5.856 5.856 0 1 1-11.712-.004 5.856 5.856 0 0 1 11.712.004z"/><circle fill="#A19F9F" cx="46.86" cy="91.234" r="2.189"/></g><g fill="#E13B3B"><path d="M93.708 84.191c3.385 0 7.441 1.988 9.211 4.912l5.514-.002c-1.838-6.73-7.729-11.662-14.725-11.662s-12.887 4.932-14.725 11.662l5.512.002c1.771-2.923 5.826-4.912 9.213-4.912zM47.042 84.191c3.385 0 7.141 1.988 8.84 4.91h5.885c-1.838-6.73-7.729-11.662-14.725-11.662s-12.887 4.932-14.725 11.662l5.885.002c1.697-2.923 5.453-4.912 8.84-4.912z"/></g></svg>