<svg xmlns="http://www.w3.org/2000/svg" width="136.914" height="136.914" xml:space="preserve"><circle fill="#EDBF00" cx="68.457" cy="68.458" r="63.333"/><path fill="#202121" d="M92.667 104.536c0 5.816-2.082 7.898-7.898 7.898H53.176c-5.814 0-7.898-2.082-7.898-7.898V30.821c0-5.814 2.084-7.896 7.898-7.896h31.592c5.816 0 7.898 2.082 7.898 7.896v73.715z"/><path d="M73.889 25.921c0 .334-.391.6-.871.6h-7.719c-.482 0-.873-.266-.873-.6 0-.33.391-.598.873-.598h7.719c.481 0 .871.268.871.598z"/><circle cx="75.176" cy="25.966" r=".658"/><circle cx="76.932" cy="25.966" r=".658"/><path d="M84.124 26.239a.886.886 0 0 1-.885.887.887.887 0 0 1 0-1.772c.49 0 .885.399.885.885z"/><path fill="none" stroke="#121212" stroke-miterlimit="10" d="M73.782 108.183c0 .891-.543 1.615-1.213 1.615h-7.117c-.668 0-1.211-.725-1.211-1.615v-1.146c0-.893.543-1.615 1.211-1.615h7.117c.67 0 1.213.723 1.213 1.615v1.146z"/><linearGradient id="a" gradientUnits="userSpaceOnUse" x1="68.863" y1="31.48" x2="68.863" y2="103.001"><stop offset="0" style="stop-color:#5978ba"/><stop offset=".703" style="stop-color:#4e9db8"/><stop offset="1" style="stop-color:#379cc9"/></linearGradient><path fill="url(#a)" d="M47.473 31.479h42.779V103H47.473z"/><g fill="#FFF"><circle cx="68.958" cy="86.407" r="1.206"/><circle cx="73.346" cy="86.407" r=".768"/><circle cx="76.856" cy="86.407" r=".768"/><circle cx="61.06" cy="86.407" r=".769"/><circle cx="64.571" cy="86.407" r=".768"/></g><path opacity=".5" fill="#202121" d="M47.473 31.479h42.76v3.586h-42.76z"/><circle fill="#FFF" cx="83.835" cy="33.163" r=".913"/><circle fill="#FFF" cx="49.666" cy="33.163" r=".913"/><circle fill="#FFF" cx="88.003" cy="33.163" r=".913"/><defs><path id="b" d="M47.473 31.479h42.779V103H47.473z"/></defs><path fill="#B5DBAF" d="M57.952 79.837c0 .814-.66 1.475-1.475 1.475h-4.305c-.816 0-1.477-.66-1.477-1.475v-4.305c0-.816.66-1.477 1.477-1.477h4.305c.814 0 1.475.66 1.475 1.477v4.305z"/><path fill="#F6A2A3" d="M67.715 79.837c0 .814-.662 1.475-1.477 1.475h-4.303c-.816 0-1.477-.66-1.477-1.475v-4.305c0-.816.66-1.477 1.477-1.477h4.303c.814 0 1.477.66 1.477 1.477v4.305z"/><path fill="#67B8CB" d="M77.477 79.837c0 .814-.66 1.475-1.475 1.475h-4.305c-.814 0-1.477-.66-1.477-1.475v-4.305c0-.816.662-1.477 1.477-1.477h4.305c.814 0 1.475.66 1.475 1.477v4.305z"/><path fill="#F5E554" d="M87.241 79.837c0 .814-.662 1.475-1.477 1.475h-4.305c-.816 0-1.475-.66-1.475-1.475v-4.305c0-.816.658-1.477 1.475-1.477h4.305c.814 0 1.477.66 1.477 1.477v4.305z"/><g><defs><path id="c" d="M87.129 59.653c0 .814-.658 1.475-1.475 1.475H52.391c-.814 0-1.477-.66-1.477-1.475V40.431c0-.816.662-1.477 1.477-1.477h33.264c.816 0 1.475.66 1.475 1.477v19.222z"/></defs></g><path fill="none" stroke="#67B8CB" stroke-width=".5" stroke-miterlimit="10" d="M87.129 67.552c0 .814-.658 1.473-1.475 1.473H52.391a1.475 1.475 0 0 1-1.477-1.473v-1.674c0-.814.662-1.475 1.477-1.475h33.264c.816 0 1.475.66 1.475 1.475v1.674z"/><g fill="#DBF0F5"><circle cx="83.693" cy="66.252" r="1.095"/><path d="M85.674 68.247c-.086.086-.25.061-.365-.055l-1.232-1.232c-.113-.115-.139-.277-.055-.363l.109-.109c.086-.088.25-.061.367.055l1.23 1.23c.115.117.141.279.053.365l-.107.109z"/></g><g><path fill="#67B8CB" d="M56.276 96.315c0 .662-.537 1.201-1.201 1.201h-3.506a1.201 1.201 0 0 1-1.201-1.201v-3.508c0-.662.537-1.201 1.201-1.201h3.506c.664 0 1.201.539 1.201 1.201v3.508z"/><path fill="#F5E554" d="M64.229 96.315c0 .662-.541 1.201-1.203 1.201H59.52a1.201 1.201 0 0 1-1.201-1.201v-3.508c0-.662.537-1.201 1.201-1.201h3.506c.662 0 1.203.539 1.203 1.201v3.508z"/><path fill="#B5DBAF" d="M72.178 96.315c0 .662-.539 1.201-1.201 1.201h-3.506a1.204 1.204 0 0 1-1.203-1.201v-3.508c0-.662.541-1.201 1.203-1.201h3.506c.662 0 1.201.539 1.201 1.201v3.508z"/><path fill="#D3D4E3" d="M80.129 96.315c0 .662-.537 1.201-1.201 1.201h-3.506a1.2 1.2 0 0 1-1.201-1.201v-3.508a1.2 1.2 0 0 1 1.201-1.201h3.506c.664 0 1.201.539 1.201 1.201v3.508z"/><path fill="#F6A2A3" d="M88.028 96.315c0 .662-.539 1.201-1.201 1.201h-3.506a1.2 1.2 0 0 1-1.201-1.201v-3.508a1.2 1.2 0 0 1 1.201-1.201h3.506c.662 0 1.201.539 1.201 1.201v3.508z"/></g><g><path fill="#6CC077" d="M52.391 61.128h33.264c.816 0 1.475-.66 1.475-1.475v-5.348l-2.754-2.754s-1.564-2.018-3.018-1.936c-1.309.076-2.836 1.713-3.129 2.037l-1.832-1.832s-1.832-2.363-3.535-2.268c-1.707.098-3.74 2.471-3.74 2.471l-.559.559-3.447-3.449s-2.254-2.904-4.348-2.785c-2.094.117-4.596 3.033-4.596 3.033l-5.258 5.256v7.016a1.478 1.478 0 0 0 1.477 1.475z"/><path fill="#DBF0F5" d="M60.768 44.349c2.094-.119 4.348 2.785 4.348 2.785l3.447 3.449.559-.559s2.033-2.373 3.74-2.471c1.703-.096 3.535 2.268 3.535 2.268l1.832 1.832c.293-.324 1.82-1.961 3.129-2.037 1.453-.082 3.018 1.936 3.018 1.936l2.754 2.754V40.431c0-.816-.658-1.477-1.475-1.477H52.391c-.814 0-1.477.66-1.477 1.477v12.207l5.258-5.256s2.502-2.916 4.596-3.033z"/></g></svg>