<svg xmlns="http://www.w3.org/2000/svg" width="136.913" height="136.913" xml:space="preserve"><circle fill="#4ABC96" cx="68.456" cy="68.457" r="63.333"/><path fill="#EF5E8F" d="m82.455 24.291-3.971-1.77-11.125-4.885-.838-.359c-.09-.031-.18-.064-.271-.092a5.895 5.895 0 0 0-1.619-.225c-3.033 0-5.494 2.281-5.494 5.096 0 .504.082.988.229 1.445L66.9 72.76l2.668-.408-6.971-45.563-.502-3.279c-.549-3.729 3.115-3.633 4.955-3.068l3.059 1.314 7.277 3.232.01-.023 3.969 1.77c.6.268 1.33-.063 1.631-.736s.059-1.44-.541-1.708z"/><path fill="#CFE6E9" d="M65.355 75.738h4.627v43.09h-4.627z"/><ellipse fill="#CFE6E9" cx="67.958" cy="118.539" rx="16.194" ry="1.158"/><path opacity=".8" fill="#CFE6E9" d="M69.867 77.762h-4.398c-.416 0-24.984-25.883-24.984-30.652 0-3.277 3.107-3.664 6.941-3.664h40.486c3.832 0 6.939 0 6.939 3.664.001 4.847-24.568 30.652-24.984 30.652z"/><path fill="#F1F8F9" d="M67.668 75.643c-2.891 0-14.459-14.219-14.459-14.219l28.773-.145S70.561 75.643 67.668 75.643z"/><path fill="#F4E028" d="M91.832 35.914c5.428 2.852 7.559 9.498 4.861 14.967l1.799.945c3.217-6.459.699-14.332-5.719-17.705-6.42-3.371-14.332-.975-17.822 5.34l1.799.945c2.971-5.324 9.654-7.343 15.082-4.492z"/><path fill="#F9F29A" d="M91.832 35.914c-5.428-2.852-12.111-.832-15.082 4.492l5.688 3.063 1.447-.023 1.746.047 2.367 2.822 8.695 4.566c2.698-5.469.567-12.115-4.861-14.967z"/><path fill="#F4E028" d="M87.348 44.738a.281.281 0 0 1-.133-.035.286.286 0 0 1-.123-.389l2.824-5.377a.289.289 0 0 1 .391-.121.29.29 0 0 1 .123.391l-2.824 5.375a.294.294 0 0 1-.258.156zM88.895 46.506a.287.287 0 0 1-.275-.205.287.287 0 0 1 .189-.361l5.799-1.805a.289.289 0 1 1 .172.552l-5.799 1.805a.27.27 0 0 1-.086.014z"/><g><path fill="#F4E028" d="m84.49 43.465-1.555-5a.287.287 0 0 1 .189-.361.29.29 0 0 1 .363.189l1.615 5.191-.612-.019z"/></g></svg>