<svg xmlns="http://www.w3.org/2000/svg" width="136.914" height="136.914" xml:space="preserve"><path fill="#A0D2DC" d="M127.54 91.265a63.123 63.123 0 0 0 4.25-22.809c0-34.979-28.355-63.333-63.332-63.333-34.979 0-63.334 28.354-63.334 63.333a63.24 63.24 0 0 0 3.414 20.508c15.924-8.395 35.842-12.398 57.459-12.398 23.507-.001 45.007 4.731 61.543 14.699z"/><path fill="#B1C635" d="M68.458 131.79c26.934 0 49.926-16.822 59.082-40.525-16.535-9.968-38.035-14.699-61.543-14.699-21.617 0-41.535 4.004-57.459 12.398 8.525 24.909 32.123 42.826 59.92 42.826z"/><g><path fill="#3A2F22" d="M84.221 68.274c-.832-7.816-7.445-13.908-15.484-13.908s-14.654 6.093-15.484 13.912l10.031 5.797h9.58l11.357-5.801z"/><path fill="#F3F4F5" d="M83.256 67.842C82.475 60.511 76.274 54.8 68.737 54.8s-13.742 5.713-14.52 13.045L43.62 109.812c0 2.229 3.264 4.035 7.293 4.035h35.648c4.027 0 7.293-1.807 7.293-4.035l-10.598-41.97z"/><path fill="#E9E9EA" d="m83.256 67.842-10.648-1.433h-8.982l-9.408 1.436-10.598 41.967c0 2.229 3.264 4.035 7.293 4.035h35.648c4.027 0 7.293-1.807 7.293-4.035l-10.598-41.97z"/><path fill="#DFDFDF" d="m63.625 66.409-9.408 1.436-10.597 41.967c0 2.229 3.264 4.035 7.293 4.035l12.712-47.438z"/><path fill="#ECECEC" d="m83.256 67.842-10.648-1.433 13.953 47.438c4.027 0 7.293-1.807 7.293-4.035l-10.598-41.97z"/><path fill="#665C51" d="M68.458 131.79c3.014 0 5.975-.222 8.877-.629l9.227-17.314H50.913l7.889 17.203c3.148.482 6.37.74 9.656.74z"/><path fill="#5B4F3F" d="m43.795 110.685-.176-.873c.001.299.065.591.176.873zM50.913 113.847c-3.486 0-6.395-1.354-7.117-3.162l3.52 17.476a62.945 62.945 0 0 0 11.486 2.89l-7.889-17.204z"/><path fill="#766959" d="m86.561 113.847-9.227 17.314a62.913 62.913 0 0 0 12.863-3.207l3.48-17.27c-.721 1.809-3.632 3.163-7.116 3.163zM93.678 110.685a2.37 2.37 0 0 0 .176-.873l-.176.873z"/><path fill="#5B4F3F" d="M84.221 68.274c-.832-7.816-7.445-13.908-15.484-13.908s-14.654 6.093-15.484 13.912l10.031-1.53 9.58-.001 11.357 1.527z"/><g><circle fill="#3A2F22" cx="68.445" cy="61.079" r="2.815"/></g><g><path fill="#51473A" d="M99.745 90.851a.81.81 0 0 0-.227-.453l-.1-.098-22.154-22.154-8.246-8.248a.814.814 0 0 0-1.148-.002l-.459.462a.808.808 0 0 0 0 1.146l7.346 7.347-3.846 3.845a1.275 1.275 0 0 0 .002 1.802l22.154 22.154a1.272 1.272 0 0 0 1.801 0l4.551-4.551a1.28 1.28 0 0 0 .326-1.25zm-6.104 1.019-1.262-1.264 1.525-1.525 1.264 1.264-1.527 1.525zm-1.605-1.607-1.264-1.264 1.525-1.525 1.264 1.263-1.525 1.526zm-1.608-1.608-1.436-1.436 1.525-1.525 1.436 1.436-1.525 1.525zm-1.781-1.78-1.32-1.319 1.527-1.525 1.318 1.318-1.525 1.526zm-1.664-1.664-1.262-1.263 1.525-1.526 1.262 1.263-1.525 1.526zm-1.606-1.607-1.379-1.378 1.525-1.525 1.379 1.378-1.525 1.525zm-1.722-1.722-1.264-1.264 1.525-1.525 1.264 1.263-1.525 1.526zm-1.608-1.608-1.379-1.378 1.527-1.525 1.377 1.378-1.525 1.525zm-1.722-1.722-1.262-1.262 1.525-1.526 1.262 1.263-1.525 1.525zm-1.608-1.608-1.377-1.377 1.525-1.526 1.377 1.378-1.525 1.525zm-1.722-1.721-1.262-1.263 1.525-1.525 1.264 1.263-1.527 1.525zm-1.606-1.608-1.545-1.544.842-.842c.379-.377 1.049-.318 1.498.131l.729.729-1.524 1.526zm20.123 17.073.691.692c.451.449.508 1.119.131 1.497l-.842.843-1.506-1.506 1.526-1.526zM72.616 73.302l.883-.885 1.547 1.543-1.57 1.568-.73-.729c-.451-.449-.509-1.119-.13-1.497zm2.773 1.002 1.262 1.264-1.568 1.568-1.264-1.263 1.57-1.569zm1.606 1.607 1.379 1.378-1.57 1.569-1.377-1.378 1.568-1.569zm1.722 1.723 1.264 1.262-1.568 1.57-1.264-1.263 1.568-1.569zm1.608 1.607 1.377 1.377-1.568 1.569-1.377-1.377 1.568-1.569zm1.722 1.721 1.262 1.264-1.568 1.568-1.262-1.262 1.568-1.57zm1.608 1.608 1.379 1.378-1.57 1.568-1.379-1.377 1.57-1.569zm1.72 1.722 1.264 1.264-1.57 1.568-1.262-1.264 1.568-1.568zm1.608 1.607 1.32 1.32-1.566 1.569-1.322-1.32 1.568-1.569zm1.666 1.665 1.434 1.435-1.568 1.57-1.434-1.436 1.568-1.569zm1.779 1.78 1.262 1.263-1.568 1.568-1.262-1.262 1.568-1.569zm1.608 1.607 1.262 1.263-1.568 1.568-1.264-1.262 1.57-1.569zm2.226 3.997c-.379.378-1.047.32-1.498-.129l-.691-.692 1.568-1.569 1.506 1.506-.885.884z"/><path fill="#51473A" d="M37.112 30.938a.802.802 0 0 0 .223.453l.1.1 22.154 22.154 8.248 8.248a.811.811 0 0 0 1.146 0l.461-.461a.808.808 0 0 0 0-1.146l-7.346-7.348 3.844-3.844a1.273 1.273 0 0 0 0-1.802L43.788 25.139a1.274 1.274 0 0 0-1.801 0l-4.551 4.552c-.34.337-.447.818-.324 1.247zm6.099-1.017 1.262 1.264-1.523 1.524-1.264-1.263 1.525-1.525zm1.608 1.607 1.264 1.263-1.525 1.525-1.264-1.263 1.525-1.525zm1.607 1.608 1.436 1.435-1.525 1.526-1.436-1.436 1.525-1.525zm1.782 1.779 1.32 1.32L48 37.761l-1.318-1.32 1.526-1.526zm1.662 1.664 1.264 1.264-1.525 1.525-1.262-1.264 1.523-1.525zm1.607 1.608 1.379 1.378-1.525 1.526-1.379-1.379 1.525-1.525zm1.723 1.721 1.264 1.263-1.525 1.525-1.266-1.262 1.527-1.526zm1.607 1.608 1.377 1.378-1.525 1.525-1.377-1.377 1.525-1.526zm1.723 1.722 1.262 1.263-1.525 1.525-1.262-1.263 1.525-1.525zm1.607 1.607 1.375 1.379-1.523 1.525-1.379-1.378 1.527-1.526zm1.723 1.722 1.262 1.264-1.527 1.525-1.262-1.264 1.527-1.525zm1.603 1.608 1.545 1.543-.842.842c-.377.377-1.047.32-1.498-.13l-.726-.73 1.521-1.525zM41.34 31.103l-.689-.692c-.449-.448-.508-1.12-.131-1.497l.842-.842 1.506 1.505-1.528 1.526zm22.899 17.385-.887.886-1.543-1.544 1.57-1.569.729.73c.451.449.508 1.119.131 1.497zm-2.774-1.003-1.264-1.262 1.57-1.57 1.264 1.264-1.57 1.568zm-1.607-1.607-1.377-1.377 1.57-1.568 1.375 1.377-1.568 1.568zm-1.721-1.722-1.264-1.263 1.568-1.568 1.264 1.262-1.568 1.569zm-1.607-1.607-1.377-1.378 1.568-1.568 1.377 1.377-1.568 1.569zm-1.723-1.722-1.262-1.264 1.568-1.568 1.262 1.263-1.568 1.569zM53.2 39.22l-1.379-1.377 1.57-1.569 1.379 1.378-1.57 1.568zm-1.723-1.723-1.262-1.262 1.568-1.569 1.262 1.263-1.568 1.568zM49.87 35.89l-1.318-1.318 1.568-1.57 1.32 1.32-1.57 1.568zm-1.664-1.664-1.434-1.435 1.568-1.569 1.434 1.436-1.568 1.568zm-1.78-1.78-1.264-1.262 1.57-1.57 1.262 1.264-1.568 1.568zm-1.607-1.607-1.262-1.262 1.568-1.57 1.262 1.264-1.568 1.568zm-2.227-3.998c.377-.377 1.049-.318 1.498.131l.689.691-1.568 1.568-1.504-1.504.885-.886z"/><path fill="#51473A" d="M38.469 92.212a.795.795 0 0 0 .455-.227l.1-.098 22.154-22.154 8.246-8.248a.811.811 0 0 0 0-1.146l-.461-.461a.81.81 0 0 0-1.145 0l-7.348 7.348-3.844-3.845a1.274 1.274 0 0 0-1.801 0L32.67 85.535a1.275 1.275 0 0 0 0 1.802l4.553 4.551c.336.338.817.445 1.246.324zm-1.017-6.102 1.266-1.264 1.523 1.526-1.264 1.263-1.525-1.525zm1.607-1.607 1.264-1.264 1.525 1.527-1.262 1.262-1.527-1.525zm1.609-1.607 1.434-1.436 1.525 1.525-1.434 1.436-1.525-1.525zm1.78-1.78 1.318-1.32 1.527 1.525-1.32 1.32-1.525-1.525zm1.664-1.665 1.262-1.263 1.525 1.525-1.262 1.264-1.525-1.526zm1.607-1.607 1.377-1.378 1.525 1.526-1.379 1.378-1.523-1.526zm1.721-1.722 1.264-1.264 1.525 1.526-1.264 1.263-1.525-1.525zm1.609-1.607 1.375-1.377 1.527 1.525-1.379 1.377-1.523-1.525zm1.721-1.723 1.262-1.262 1.525 1.525-1.262 1.263-1.525-1.526zm1.607-1.607 1.377-1.377 1.527 1.525-1.379 1.378-1.525-1.526zm1.723-1.721 1.262-1.264 1.527 1.526-1.264 1.263-1.525-1.525zm1.608-1.608 1.543-1.543.842.842c.377.377.318 1.048-.131 1.497l-.729.729-1.525-1.525zM38.633 87.98l-.689.691c-.451.449-1.121.509-1.498.13l-.842-.842 1.504-1.506 1.525 1.527zm17.389-22.897.883.885-1.543 1.545-1.568-1.569.73-.729c.449-.45 1.119-.509 1.498-.132zm-1.004 2.773-1.264 1.264-1.568-1.57 1.264-1.262 1.568 1.568zm-1.607 1.608-1.379 1.377-1.568-1.568 1.379-1.377 1.568 1.568zm-1.723 1.723-1.262 1.262-1.57-1.568 1.264-1.263 1.568 1.569zm-1.605 1.606-1.379 1.378-1.568-1.568 1.377-1.378 1.57 1.568zm-1.723 1.722-1.264 1.264-1.568-1.568 1.264-1.264 1.568 1.568zm-1.608 1.607L45.375 77.5l-1.568-1.569 1.377-1.377 1.568 1.568zm-1.722 1.723-1.264 1.263-1.568-1.569 1.264-1.262 1.568 1.568zm-1.608 1.607-1.32 1.32-1.568-1.568 1.32-1.32 1.568 1.568zm-1.664 1.664-1.436 1.436-1.568-1.568 1.436-1.436 1.568 1.568zm-1.779 1.78-1.262 1.264-1.57-1.569 1.262-1.263 1.57 1.568zm-1.607 1.607-1.264 1.264-1.568-1.57 1.264-1.262 1.568 1.568zm-3.998 2.227c-.379-.378-.318-1.048.131-1.497l.691-.691 1.568 1.568-1.506 1.506-.884-.886z"/><path fill="#51473A" d="M98.385 29.578a.8.8 0 0 0-.455.226l-.1.099-22.154 22.155-8.246 8.248a.808.808 0 0 0 0 1.146l.459.462a.811.811 0 0 0 1.146 0l7.348-7.348 3.844 3.844a1.275 1.275 0 0 0 1.803 0l22.152-22.154a1.27 1.27 0 0 0 0-1.801l-4.551-4.552a1.27 1.27 0 0 0-1.246-.325zm1.016 6.101-1.264 1.264-1.523-1.525 1.262-1.262 1.525 1.523zm-1.608 1.607-1.262 1.264-1.525-1.525 1.262-1.263 1.525 1.524zm-1.607 1.608L94.75 40.33l-1.525-1.525 1.436-1.435 1.525 1.524zm-1.779 1.78-1.32 1.319-1.525-1.525 1.322-1.319 1.523 1.525zm-1.664 1.664-1.262 1.263-1.527-1.525 1.264-1.262 1.525 1.524zm-1.606 1.607-1.379 1.378-1.525-1.525 1.379-1.377 1.525 1.524zm-1.724 1.722-1.262 1.264-1.525-1.525 1.262-1.264 1.525 1.525zm-1.608 1.607-1.377 1.379-1.525-1.526 1.379-1.377 1.523 1.524zm-1.721 1.723-1.264 1.262-1.523-1.523 1.262-1.264 1.525 1.525zm-1.609 1.607L83.1 51.981l-1.527-1.525 1.379-1.377 1.523 1.525zm-1.721 1.721-1.264 1.264-1.525-1.524 1.266-1.263 1.523 1.523zm-1.607 1.608-1.543 1.543-.842-.84c-.377-.378-.318-1.049.131-1.498l.729-.729 1.525 1.524zM98.221 33.81l.691-.691c.449-.449 1.119-.508 1.496-.13l.842.841-1.504 1.506-1.525-1.526zM80.833 56.707l-.885-.886 1.543-1.543 1.57 1.568-.73.73c-.45.45-1.12.508-1.498.131zm1.003-2.773 1.264-1.263 1.568 1.568-1.264 1.264-1.568-1.569zm1.608-1.607 1.377-1.379 1.57 1.569-1.379 1.378-1.568-1.568zm1.723-1.723 1.262-1.263 1.57 1.568-1.262 1.263-1.57-1.568zm1.605-1.607 1.379-1.377 1.568 1.568-1.377 1.377-1.57-1.568zm1.723-1.722 1.264-1.263 1.568 1.568-1.262 1.263-1.57-1.568zm1.607-1.608 1.379-1.377 1.568 1.568-1.379 1.379-1.568-1.57zm1.723-1.721 1.264-1.264 1.568 1.569-1.264 1.263-1.568-1.568zm1.607-1.607 1.32-1.32 1.568 1.568-1.32 1.32-1.568-1.568zm1.664-1.664 1.436-1.436 1.568 1.568-1.436 1.436-1.568-1.568zm1.779-1.78 1.262-1.263 1.57 1.568-1.264 1.264-1.568-1.569zm1.608-1.608 1.264-1.263 1.568 1.568-1.264 1.264-1.568-1.569zm3.998-2.227c.377.378.318 1.049-.131 1.498l-.691.691-1.568-1.568 1.504-1.506.886.885z"/><circle fill="#3A2F22" cx="68.445" cy="61.079" r="2.315"/><circle fill="#423528" cx="68.445" cy="61.079" r="1.462"/><path fill="#4C3E30" d="M67.584 61.758a1.089 1.089 0 0 1 1.541-1.539c.424.426-1.115 1.965-1.541 1.539z"/></g><g><path fill="#665C51" d="M71.256 85.979c0 .709-.574 1.283-1.281 1.283h-3.35a1.282 1.282 0 0 1-1.283-1.283v-5.7c0-.708.574-1.282 1.283-1.282h3.35c.707 0 1.281.574 1.281 1.282v5.7z"/></g><g><path fill="#665C51" d="M71.256 103.11c0 .709-.574 1.283-1.281 1.283h-3.35a1.282 1.282 0 0 1-1.283-1.283v-5.701c0-.708.574-1.282 1.283-1.282h3.35c.707 0 1.281.574 1.281 1.282v5.701z"/></g></g></svg>