<svg xmlns="http://www.w3.org/2000/svg" width="136.913" height="136.914" xml:space="preserve"><circle fill="#C6B298" cx="68.457" cy="68.457" r="63.333"/><path fill="#EA6A25" d="M101.577 40.146c-7.994-9.344-19.861-15.271-33.121-15.271-24.068 0-43.582 19.512-43.582 43.582 0 13.645 6.271 25.818 16.086 33.809a43.385 43.385 0 0 0 27.496 9.775c24.072 0 43.584-19.512 43.584-43.584 0-10.811-3.945-20.693-10.463-28.311z"/><path fill="#F37C2A" d="M88.546 88.883c13.684-13.686 18.162-32.787 13.031-48.736-7.994-9.344-19.861-15.271-33.121-15.271-24.068 0-43.582 19.512-43.582 43.582 0 13.645 6.271 25.818 16.086 33.809 15.709 4.559 34.23-.027 47.586-13.384z"/><path fill="#3A3A39" d="M111.89 71.891c.053-.656.09-1.314.113-1.979-2.52-1.85-6.553-3.57-11.273-5.123.504-4.355.447-8.281.014-11.789l7.695-1.922a40.739 40.739 0 0 0-.68-1.506l-7.244 1.811c-1.064-6.57-3.424-11.57-5.684-15.055a35.78 35.78 0 0 0-4.408-5.537 43.694 43.694 0 0 0-5.004-2.521l-.158.254c.043.027 4.404 2.795 8.254 8.76 2.15 3.338 4.4 8.135 5.408 14.449-10.922 1.549-30.094-15.658-30.279-15.826-5.549-5.191-11.488-7.477-15.061-8.455-.891.322-1.764.68-2.625 1.059 2.436.461 9.877 2.316 16.586 8.592.781.707 18.215 16.363 29.967 16.363.561 0 1.104-.049 1.637-.123.395 3.266.447 6.91.006 10.941-15.281-4.762-36.439-7.828-37.736-8.012-22.34-2.65-31.951 1.391-35.816 4.242-.152.82-.279 1.648-.383 2.482 1.969-2.121 10.025-8.193 35.986-5.115.316.045 22.43 3.248 37.76 8.02l-.006.072c-.004.066-.275 4.867-2.076 11.402-5.25-2.332-11.471-.475-12.205-.238-2.404.471-24.123 8.572-26.619 9.506l-.047.018c-10.725 4.77-23.984 4.848-26.547 4.814.344.553.699 1.098 1.068 1.631 4.207-.014 16.053-.484 26.117-4.947 9.869-3.691 25.016-9.238 26.344-9.43l.141-.031c.072-.023 6.359-2.045 11.293.256a63.127 63.127 0 0 1-2.516 6.91c-3.928 9.061-11.738 20.682-26.818 26.117.453.014.904.035 1.361.035a45.34 45.34 0 0 0 3.098-.121c13.082-6.094 20.146-16.84 23.852-25.387a65.612 65.612 0 0 0 2.471-6.711c.264.188.527.377.775.6.391.441 5.326 6.238 4.947 13.809a43.493 43.493 0 0 0 1.605-2.352c-.572-7.252-5.154-12.338-5.379-12.58l-.055-.055a10.83 10.83 0 0 0-1.41-1.053c1.674-5.93 2.105-10.484 2.199-11.756 5.074 1.672 9.234 3.52 11.332 5.481z"/></svg>