<svg xmlns="http://www.w3.org/2000/svg" width="136.913" height="136.914" xml:space="preserve"><circle fill="#FFCE00" cx="68.457" cy="68.456" r="63.333"/><path fill="#525252" d="M105.22 91.858c0 4.297-1.008 4.215-5.51 4.215H38.972c-4.504 0-8.154-3.484-8.154-7.781V51.767c0-4.297 3.65-7.783 8.154-7.783h60.303c4.504 0 5.945 1.541 5.945 5.838v42.036z"/><path fill="#444545" d="M103.634 90.562c0 4.297-1.236 4.215-5.547 4.215H40.208c-4.311 0-7.807-3.484-7.807-7.781v-33.23c0-4.297 3.496-7.781 7.807-7.781h58.387c4.313 0 5.039 1.971 5.039 6.268v38.309z"/><path fill="#63BD6E" d="m49.536 43.19 51.223 6.833-2.956 22.165-51.223-6.832z"/><path fill="#117F4A" d="m97.069 71.06-49.484-6.598 2.686-20.143 49.484 6.6-2.686 20.141zm2.178-19.678-48.609-6.48-2.547 19.1 48.611 6.479 2.545-19.099z"/><path fill="#117F4A" d="M82.411 58.856c.645-4.828-2.748-9.264-7.576-9.91-4.828-.643-9.266 2.75-9.906 7.578a8.816 8.816 0 0 0 7.576 9.908 8.815 8.815 0 0 0 9.906-7.576z"/><path fill="#63BD6E" d="m72.468 64.966.193-1.438c-.586-.166-1.051-.391-1.391-.676-.342-.283-.615-.699-.816-1.246-.207-.547-.281-1.201-.227-1.959l1.232-.1c-.012.773.078 1.361.266 1.764.264.555.633.891 1.094 1.01l.613-4.572c-.477-.174-.949-.471-1.422-.887a2.412 2.412 0 0 1-.734-1.17c-.145-.479-.178-1.008-.102-1.584.137-1.023.545-1.811 1.229-2.361.465-.369 1.1-.551 1.9-.543l.092-.688.707.096-.094.686c.68.18 1.199.496 1.551.953.455.592.678 1.354.666 2.281l-1.268.049c.006-.576-.084-1.029-.268-1.357a1.6 1.6 0 0 0-.84-.719l-.553 4.146c.576.254.955.449 1.141.584.346.246.615.525.807.84.195.314.33.672.404 1.076.076.402.084.828.025 1.273-.137 1.002-.508 1.799-1.123 2.393-.613.594-1.342.857-2.182.789l-.193 1.453-.707-.093zm1.678-12.572a1.72 1.72 0 0 0-1.188.533 2.125 2.125 0 0 0-.57 1.229c-.064.488-.008.916.176 1.277.182.361.531.676 1.051.945l.531-3.984zm-.62 10.021c.473-.004.891-.195 1.25-.574.357-.377.578-.871.66-1.48.072-.523.02-.957-.152-1.299-.17-.346-.563-.686-1.172-1.021l-.586 4.374z"/><g><path fill="#63BD6E" d="M39.844 53.328 86.9 31.963l9.243 20.359-47.054 21.365z"/><path fill="#117F4A" d="M94.927 51.759 49.466 72.396l-8.398-18.502 45.459-20.637 8.4 18.502zm-8.586-17.84L41.687 54.19l7.967 17.547 44.654-20.273-7.967-17.545z"/><circle fill="#117F4A" cx="67.997" cy="52.827" r="8.82"/><g><path fill="#63BD6E" d="m70.833 59.632-.598-1.318c-.586.17-1.1.225-1.537.164-.439-.061-.893-.266-1.355-.625-.461-.355-.873-.869-1.229-1.541l.992-.74c.402.664.789 1.117 1.16 1.357.52.33 1.008.422 1.465.275l-1.908-4.199c-.494.104-1.053.104-1.672 0a2.425 2.425 0 0 1-1.244-.602 3.756 3.756 0 0 1-.926-1.289c-.426-.941-.496-1.826-.211-2.656.199-.561.641-1.049 1.324-1.467l-.284-.631.648-.295.287.631c.668-.207 1.277-.211 1.816-.014.701.262 1.295.789 1.775 1.584l-1.047.711c-.305-.49-.619-.824-.949-1.008a1.579 1.579 0 0 0-1.092-.164l1.729 3.809c.623-.09 1.049-.125 1.277-.109.422.025.801.119 1.131.285.332.16.633.395.912.695.279.303.51.658.695 1.07.418.92.523 1.793.318 2.621-.209.83-.686 1.439-1.434 1.826l.605 1.334-.648.296zm-5.242-11.547a1.72 1.72 0 0 0-.723 1.078c-.092.447-.037.896.168 1.346.203.451.479.781.824.992.348.209.813.291 1.391.244l-1.66-3.66zm4.791 8.824c.398-.252.646-.635.752-1.148.104-.51.029-1.045-.227-1.607-.215-.48-.488-.82-.814-1.02-.328-.201-.84-.283-1.537-.244l1.826 4.019z"/></g></g><g><path fill="#616161" d="M101.817 95.425c0 4.297-1.701 5.512-5.998 5.512H35.192c-4.297 0-4.375-.404-4.375-4.701V52.198s.049-1.055.102-1.709c.113-1.479 1.195-2.938 1.195-2.938s.648 2.703 2.484 3.457c2.877 1.184 5.109 1.082 5.109 1.082h56.111c4.297 0 5.998.564 5.998 4.861v38.474z"/><path fill="#717171" d="m35.952 55.038-4-.002a1 1 0 0 1 0-2l4 .002a1 1 0 1 1 0 2zM94.36 99.739h-1.975a1 1 0 0 1 0-2h1.975c3.334 0 3.885-.291 4.172-1.361a.996.996 0 0 1 1.225-.707.998.998 0 0 1 .707 1.225c-.76 2.843-3.356 2.843-6.104 2.843zm-10.029 0h-8.057a1 1 0 1 1 0-2h8.057a1 1 0 0 1 0 2zm-16.113 0h-8.057a1 1 0 1 1 0-2h8.057a1 1 0 0 1 0 2zm-16.114 0h-8.057a1 1 0 1 1 0-2h8.057a1 1 0 1 1 0 2zm47.606-10.14a1 1 0 0 1-1-1v-8.057a1 1 0 1 1 2 0v8.057a1 1 0 0 1-1 1zm0-16.114a1 1 0 0 1-1-1v-8.057a1 1 0 0 1 2 0v8.057a1 1 0 0 1-1 1zm-.309-16.082c-.424 0-.818-.273-.953-.699-.283-.898-.771-1.641-3.871-1.641l-2.23-.002a1 1 0 1 1 0-2l2.23.002c2.502 0 4.934.367 5.779 3.037a1.002 1.002 0 0 1-.955 1.303zM84.29 55.06l-8.057-.004a1 1 0 0 1 0-2h.002l8.057.004a1 1 0 0 1-.002 2zm-16.111-.008h-.002l-8.057-.004a1 1 0 0 1 .002-2l8.057.004a1 1 0 0 1 0 2zm-16.114-.008-8.057-.002a1 1 0 0 1 0-2l8.057.002a1 1 0 0 1 0 2zM35.952 99.739h-4a1 1 0 1 1 0-2h4a1 1 0 1 1 0 2z"/><path fill="#616161" d="M97.976 93.524c0 3.645-1.281 3.92-5.012 3.92H30.925v-42.22l62.238.027c3.734 0 4.813 1.031 4.813 4.674v33.599z"/></g><g><path fill="#727172" d="M105.354 78.188H85.901c-1.258 0-3.605-2.254-3.605-6.803s2.348-6.674 3.605-6.674h19.453c.647.001.577 13.477 0 13.477z"/><path fill="#575656" d="M105.354 79.269H85.901c-1.258 0-3.605-2.252-3.605-6.801s2.348-6.676 3.605-6.676h19.453c.647 0 .577 13.477 0 13.477z"/><ellipse fill="#D6CB78" cx="88.417" cy="72.569" rx="2.539" ry="2.971"/><ellipse fill="#ECE17E" cx="88.417" cy="72.569" rx="2.045" ry="2.395"/></g></svg>