<svg xmlns="http://www.w3.org/2000/svg" width="136.913" height="136.914" xml:space="preserve"><circle fill="#344E5D" cx="68.457" cy="68.456" r="63.333"/><path fill="#E84849" d="M74.036 107.236a4.75 4.75 0 0 1-4.748 4.748H34.079a4.748 4.748 0 0 1-4.748-4.748l16.93-32.738a4.745 4.745 0 0 1 4.748-4.746h1.35a4.747 4.747 0 0 1 4.748 4.746l16.929 32.738z"/><path fill="#DB3F3E" d="M71.671 106.281c0 2.467-1.9 4.471-4.244 4.471H35.938c-2.342 0-4.242-2.004-4.242-4.471l4.877-9.934s-.273-2.426 9.955-.889c10.225 1.539 18.996-1.695 18.996-1.695l6.147 12.518z"/><path fill="#E84849" d="M56.104 74.613c0 1.344-.656 2.434-1.467 2.434H48.58c-.813 0-1.469-1.09-1.469-2.434v-22.71c0-1.345.656-2.435 1.469-2.435h6.057c.811 0 1.467 1.09 1.467 2.435v22.71z"/><path fill="#E84849" d="M51.612 44.885c-5.117 0-7.145.601-7.145 2.646 0 .059.016.117.021.176.23 1.962 2.156 5.645 7.123 5.645 4.963 0 6.887-3.683 7.117-5.645.008-.059.021-.117.021-.176.002-2.046-2.023-2.646-7.137-2.646z"/><path fill="#DC3A3A" d="M51.612 48.411c3.834 0 5.355-.45 5.355-1.983 0-.464-1.436-1.057-5.096-1.057-3.658 0-5.621.33-5.621 1.057.001 1.533 1.524 1.983 5.362 1.983z"/><circle fill="#CBE9E6" cx="52.027" cy="36.511" r="5.532"/><path fill="#DFF1EF" d="M47.687 37.191c-.881-1.034.381-3.602 1.414-4.48 1.035-.883 3.426-1.606 4.303-.571.884 1.032-4.839 6.086-5.717 5.051z"/><circle fill="#CBE9E6" cx="48.083" cy="24.338" r="3.951"/><path fill="#DFF1EF" d="M44.981 24.826c-.631-.739.271-2.575 1.01-3.201.738-.63 2.449-1.147 3.076-.406.631.735-3.457 4.345-4.086 3.607z"/><g><circle fill="#CBE9E6" cx="59.721" cy="27.25" r="4.269"/><path fill="#DFF1EF" d="M56.372 27.775c-.682-.798.293-2.778 1.092-3.458.799-.679 2.645-1.236 3.32-.439.68.797-3.732 4.695-4.412 3.897z"/></g><g><path fill="#E84849" d="M57.282 72.793c0 1.607-.496 2.91-1.115 2.91h-9.139c-.617 0-1.117-1.303-1.117-2.91 0-1.605.5-2.908 1.117-2.908h9.139c.619 0 1.115 1.303 1.115 2.908z"/></g><g><path fill="#FFF" d="M48.423 55.203c-.307 0-.561-.222-.576-.505-.014-.293.232-.54.549-.552.424-.021 4.141-.179 4.432-.179.318 0 .576.236.576.529 0 .292-.258.529-.576.529-.199 0-2.729.104-4.377.174-.011.004-.018.004-.028.004zM48.423 58.377c-.307 0-.561-.221-.576-.503-.014-.294.232-.541.549-.554.424-.02 4.141-.179 4.432-.179.318 0 .576.236.576.529 0 .294-.258.529-.576.529-.199 0-2.729.104-4.377.175-.011.003-.018.003-.028.003zM48.423 61.552c-.307 0-.561-.222-.576-.506-.014-.291.232-.538.549-.552.424-.018 4.141-.178 4.432-.178.318 0 .576.236.576.529s-.258.529-.576.529c-.199 0-2.729.105-4.377.177l-.028.001zM48.423 64.725c-.307 0-.561-.22-.576-.504-.014-.291.232-.539.549-.553a479.23 479.23 0 0 1 4.432-.177c.318 0 .576.236.576.528s-.258.529-.576.529c-.199 0-2.729.105-4.377.176l-.028.001zM48.423 67.899c-.307 0-.561-.223-.576-.504-.014-.293.232-.539.549-.553.424-.02 4.141-.178 4.432-.178.318 0 .576.236.576.527 0 .293-.258.531-.576.531-.199 0-2.729.105-4.377.174-.011.003-.018.003-.028.003z"/></g><g><path fill="#039A88" d="M107.028 63.379c5.008-5.872 6.654-11.06 4.496-14.324-2.021-3.059-7.162-3.682-13.9-1.786l-.008-.02-.018.006c-2.154-6.759-5.459-10.612-9.156-10.612-3.963 0-7.408 4.323-9.539 11.893-2.322-.491-4.48-.754-6.406-.754-4.336 0-7.291 1.266-8.551 3.663-1.818 3.461.334 8.453 5.893 13.789l-.012.014.014.013c-4.996 5.867-6.637 11.049-4.482 14.311 1.25 1.891 3.654 2.889 6.953 2.889h.002c2.041 0 4.389-.391 6.961-1.119 2.156 6.775 5.465 10.643 9.168 10.643 3.961 0 7.406-4.324 9.539-11.895 2.322.492 4.479.756 6.404.756 4.334 0 7.291-1.266 8.551-3.662 1.82-3.465-.338-8.464-5.909-13.805zm-10.644 14.08a51.782 51.782 0 0 1-4.811-1.521 70.498 70.498 0 0 0 3.234-1.994 71.599 71.599 0 0 0 2.506-1.744 50.978 50.978 0 0 1-.929 5.259zm-15.612 1.115a49.741 49.741 0 0 1-1.15-6.002 67.667 67.667 0 0 0 3.449 1.959 66.028 66.028 0 0 0 3.416 1.66 49.784 49.784 0 0 1-5.715 2.383zm-5.709-11.743c-.203-.156-.396-.316-.596-.475a41.887 41.887 0 0 1-1.236-1.016c-.098-.083-.191-.166-.287-.249.1-.103.193-.206.293-.31.391-.407.797-.813 1.213-1.217.199-.194.396-.389.602-.582a57.265 57.265 0 0 1 1.723-1.552l.191-.169c-.002.037-.002.074-.002.111a66.867 66.867 0 0 0-.066 2.938c0 1.206.041 2.41.105 3.611.006.117.004.234.01.354-.014-.01-.025-.02-.039-.029a54.09 54.09 0 0 1-1.911-1.415zM85.31 52.688a68.589 68.589 0 0 0-3.234 1.994 71.018 71.018 0 0 0-2.506 1.744c.229-1.834.545-3.588.93-5.26 1.565.411 3.171.913 4.81 1.522zm5.193-.308c.879-.429 1.75-.822 2.611-1.188.232-.099.463-.184.693-.278a47.982 47.982 0 0 1 1.896-.725l.408-.14.105.408c.158.638.303 1.293.438 1.96.049.24.102.475.148.719.17.908.318 1.839.445 2.796l.012.104c-.098-.059-.199-.11-.299-.168a68.758 68.758 0 0 0-3.152-1.776 68.43 68.43 0 0 0-3.125-1.531c-.092-.042-.182-.092-.273-.134.032-.015.062-.033.093-.047zm7.291 11.932c0 1.641-.061 3.297-.184 4.931a66 66 0 0 1-8.637 5.664 65.27 65.27 0 0 1-9.643-5.076 73.737 73.737 0 0 1-.113-1.642c-.02-.324-.047-.646-.063-.973a65.329 65.329 0 0 1-.066-2.904c0-.868.02-1.737.053-2.603.012-.288.033-.57.049-.856.025-.494.055-.987.09-1.477a66.27 66.27 0 0 1 8.617-5.65 57.22 57.22 0 0 1 1.57.694c.256.115.514.225.768.345.861.405 1.715.826 2.557 1.268a68.13 68.13 0 0 1 2.551 1.417c.26.152.514.314.771.471.488.294.973.591 1.449.895.153 1.809.231 3.656.231 5.496zm2.062-3.974a51.283 51.283 0 0 1 4.082 3.195 52.078 52.078 0 0 1-4.025 3.833c.045-1.018.072-2.039.072-3.055 0-1.327-.052-2.654-.129-3.973zm9.84-10.074c1.529 2.313-.107 6.721-4.279 11.637a55.482 55.482 0 0 0-5.77-4.356v-.002l-.002-.001a64.952 64.952 0 0 0-.211-1.789c-.016-.105-.023-.213-.039-.317a56.226 56.226 0 0 0-.365-2.307c-.041-.228-.088-.448-.131-.673a53.038 53.038 0 0 0-.32-1.551 31.268 31.268 0 0 0-.188-.788c-.061-.246-.113-.501-.176-.743 2.361-.665 4.541-1.015 6.354-1.015 1.766-.001 4.086.329 5.127 1.905zm-21.254-11.43c2.605 0 5.273 3.454 7.072 9.087-.25.086-.506.188-.76.278-.242.088-.484.175-.73.268-.51.194-1.023.401-1.541.618-.199.083-.395.159-.594.246-.721.311-1.445.641-2.176.993-.064.031-.131.066-.195.099-.574.279-1.15.567-1.729.872l-.002-.001-.002.001a56.146 56.146 0 0 0-6.752-2.265c1.8-6.32 4.597-10.196 7.409-10.196zM65.886 52.463c.844-1.606 3.191-2.49 6.611-2.49 1.752 0 3.719.227 5.859.675a56.657 56.657 0 0 0-1.189 7.601l-.002.001v.002a59.02 59.02 0 0 0-1.346 1.114c-.078.064-.158.127-.234.191-.57.489-1.123.982-1.66 1.478-.172.157-.332.316-.498.474-.373.351-.736.702-1.092 1.057-.176.177-.348.354-.518.531-.168.173-.346.344-.508.518-4.642-4.475-6.712-8.697-5.423-11.152zm6.427 27.805c-1.766 0-4.086-.33-5.127-1.906-1.529-2.313.109-6.721 4.279-11.638.156.137.326.271.486.408l.502.42c.373.309.76.615 1.152.918.146.117.291.232.441.347.545.416 1.105.828 1.682 1.234.063.045.129.088.193.133.432.301.865.602 1.313.896v.004h.002c.297 2.918.777 5.658 1.432 8.168-2.362.666-4.542 1.016-6.355 1.016zm16.129 9.523c-2.605 0-5.275-3.455-7.074-9.088 2.496-.854 5.088-1.984 7.725-3.373h.004a56.512 56.512 0 0 0 6.752 2.266c-1.799 6.318-4.594 10.195-7.407 10.195zm22.555-13.629c-.844 1.605-3.193 2.49-6.611 2.49-1.752 0-3.719-.227-5.859-.674a56.616 56.616 0 0 0 1.189-7.6l.002-.002v-.004c2.176-1.739 4.139-3.538 5.855-5.361 4.643 4.475 6.713 8.696 5.424 11.151z"/><circle fill="#00B39A" cx="93.63" cy="41.729" r="3.18"/><circle fill="#00B39A" cx="71.442" cy="80.901" r="3.179"/><circle fill="#00B39A" cx="99.108" cy="69.67" r="3.18"/></g></svg>