<svg xmlns="http://www.w3.org/2000/svg" width="136.914" height="136.914" xml:space="preserve"><circle fill="#22C48A" cx="68.457" cy="68.456" r="63.333"/><path fill="#81BCB9" d="M47.235 98.284a4.978 4.978 0 0 1-3.504-1.439 4.975 4.975 0 0 0 3.549 1.484h1.072l-.025-.045h-1.092z"/><path fill="#8AC5C4" d="M50.892 98.284h-2.565l.026.045h2.578z"/><path fill="#EDC92C" d="m103.745 69.507-3.756-6.67a4.956 4.956 0 0 1-1.584 2.625l-8.541 7.367-20.279 17.492-2.238 5.407 34.498-19.423a4.945 4.945 0 0 0 1.709-1.627c.986-1.508 1.138-3.491.191-5.171z"/><path fill="#94D0D0" d="M54.712 98.284h-3.82l.039.045h3.888z"/><path fill="#F37C2A" d="M98.925 58.423 88.79 46.673a4.957 4.957 0 0 0-2.43-1.541c.654 1.261.785 2.78.201 4.195l-3.412 8.238-6.32 15.264-9.086 22.298 29.875-28.875-.201.063.988-.853a4.956 4.956 0 0 0 1.584-2.625 4.965 4.965 0 0 0-1.064-4.414z"/><path fill="#ED3351" d="M103.554 74.679a4.945 4.945 0 0 1-1.709 1.627L67.347 95.729l-.381.214a4.97 4.97 0 0 1-4.146 2.335l-.092.052h36.976a4.99 4.99 0 0 0 4.992-4.992V77.821a4.944 4.944 0 0 0-1.142-3.142z"/><path fill="#A0D5D9" d="m60.354 98.284-.053.045h2.426l.092-.052c-.023 0-.045.007-.07.007h-2.395z"/><path fill="#A0D5D9" d="m54.712 98.284.107.045h5.483l.052-.045z"/><path fill="#357180" d="M86.36 45.132a4.936 4.936 0 0 0-2.502-2.326L69.522 36.87a4.977 4.977 0 0 0-3.813-.002c1.227.909 2.033 2.355 2.033 4V93.293a4.94 4.94 0 0 1-.777 2.649l.381-.214 2.029-4.899.117-.077 7.336-17.923 6.32-15.264 3.412-8.238c.586-1.415.455-2.934-.2-4.195z"/><path fill="#B3DCE2" d="m42.288 88.312-.045-.054v5.035c0 1.39.57 2.646 1.488 3.552a4.976 4.976 0 0 1-1.443-3.508v-5.025zM42.288 80.952v-.763l-.045.04v.772c.014-.018.031-.031.045-.049z"/><path fill="#B3DCE2" d="m42.288 87.563-.045-.082v.777l.045.054zM42.243 81.002v6.479l.045.081v-6.61c-.014.018-.031.031-.045.05zM42.802 88.474c-.031.107-.07.213-.096.321l.797.923-.701-1.244z"/><path fill="#1FA85B" d="M65.71 36.868a4.954 4.954 0 0 0-2.961-.991H47.235a4.99 4.99 0 0 0-4.992 4.991v39.361l.045-.04v13.147c0 1.368.553 2.605 1.443 3.508a4.974 4.974 0 0 0 3.504 1.439h15.514c.025 0 .047-.007.07-.007a4.969 4.969 0 0 0 4.146-2.335c.486-.77.777-1.674.777-2.649V40.868c.001-1.644-.805-3.091-2.032-4z"/><g><circle fill="#81BCB9" cx="61.575" cy="92.541" r="3.166"/></g></svg>