<svg xmlns="http://www.w3.org/2000/svg" width="136.914" height="136.914" xml:space="preserve"><circle fill="#D7DABA" cx="68.457" cy="68.458" r="63.333"/><path fill="#327477" d="M99.778 101.151c0 .967-.782 1.748-1.746 1.748H39.313a1.747 1.747 0 0 1-1.746-1.748V32.374c0-.965.783-1.748 1.746-1.748h58.719c.964 0 1.746.783 1.746 1.748v68.777z"/><path fill="#3B7F89" d="M99.778 105.876c0 .965-.782 1.748-1.746 1.748H42.621l.001-64.93h55.41c.964 0 1.746.783 1.746 1.748v61.434z"/><path fill="#4699A1" d="M41.913 41.786h1.063v65.838h-1.063z"/><path fill="#2A646E" d="M42.089 30.626h-2.775c-.963 0-1.746.783-1.746 1.748v73.502c0 .965.783 1.748 1.746 1.748h2.775V30.626z"/><path fill="#E9E9EA" d="M96.63 42.673H43.536a3.278 3.278 0 0 1-3.277-3.279V37.24a3.277 3.277 0 0 1 3.277-3.277h49.816a3.277 3.277 0 0 1 3.277 3.277v5.433z"/><path fill="#2A646E" d="M81.153 72.364H61.509a4.21 4.21 0 0 1-4.205-4.205V57.964a4.21 4.21 0 0 1 4.205-4.203h19.645a4.21 4.21 0 0 1 4.204 4.203v10.195a4.21 4.21 0 0 1-4.205 4.205zM87.895 82.858c0 .754-.587 1.365-1.312 1.365H55.492c-.725 0-1.313-.611-1.313-1.365 0-.756.588-1.367 1.313-1.367h31.091c.725 0 1.312.612 1.312 1.367zM87.895 87.929c0 .754-.587 1.365-1.312 1.365H55.492c-.725 0-1.313-.611-1.313-1.365s.588-1.367 1.313-1.367h31.091c.725 0 1.312.613 1.312 1.367zM82.371 95.47c0 .506-.396.918-.883.918H60.587c-.488 0-.884-.412-.884-.918s.396-.918.884-.918h20.901c.488 0 .883.412.883.918z"/></svg>