<svg xmlns="http://www.w3.org/2000/svg" width="136.913" height="136.913" xml:space="preserve"><circle fill="#344E5D" cx="68.456" cy="68.455" r="63.333"/><path fill="#83CECA" d="M82.127 46.68c-2.713-9.422-7.09-15.543-12.033-15.543-5.234 0-9.836 6.865-12.496 17.244 3.662.867 7.596 2.148 11.648 3.828 4.477-2.404 8.848-4.268 12.881-5.529z"/><path fill="#039A88" d="m69.303 53.314-.439-.182c-3.949-1.637-7.818-2.908-11.496-3.779l-.99-.234.252-.988c2.889-11.268 7.922-17.994 13.465-17.994 5.281 0 10.018 5.928 12.994 16.266l.271.939-.934.291c-4.051 1.27-8.326 3.105-12.705 5.457l-.418.224zm-10.477-5.662c3.342.848 6.822 2.006 10.365 3.453 4.012-2.129 7.939-3.834 11.699-5.078-2.676-8.719-6.68-13.891-10.797-13.891-4.357.001-8.632 5.917-11.267 15.516z"/><path fill="#83CECA" d="M58.059 91.436c2.713 9.42 7.092 15.541 12.035 15.541 5.232 0 9.834-6.865 12.492-17.242-3.66-.867-7.594-2.15-11.648-3.83-4.475 2.406-8.846 4.267-12.879 5.531z"/><path fill="#039A88" d="M70.094 107.977c-5.281 0-10.02-5.928-12.996-16.264l-.27-.939.932-.291c4.068-1.277 8.344-3.113 12.705-5.459l.418-.225.438.182c3.955 1.637 7.822 2.91 11.496 3.781l.992.234-.254.986c-2.885 11.268-7.918 17.995-13.461 17.995zM59.297 92.088c2.676 8.717 6.68 13.889 10.797 13.889 4.357 0 8.633-5.916 11.266-15.514-3.34-.848-6.82-2.008-10.365-3.455-3.997 2.123-7.927 3.828-11.698 5.08z"/><path fill="#83CECA" d="M45.73 70.281c-7.035 7.854-10.127 15.365-7.271 19.686 2.725 4.123 10.246 4.4 19.6 1.469-1.154-4.01-2.004-8.621-2.471-13.615-3.729-2.425-7.053-4.977-9.858-7.54z"/><path fill="#039A88" d="M47.078 94.387c-4.512 0-7.779-1.338-9.453-3.869-3.066-4.641-.383-12.26 7.361-20.904l.674-.752.746.682c2.807 2.564 6.08 5.066 9.727 7.439l.406.264.045.48c.457 4.883 1.275 9.402 2.436 13.434l.271.938-.934.293c-4.226 1.323-8.023 1.995-11.279 1.995zm-1.264-22.686c-6.395 7.389-8.893 14.127-6.521 17.715 1.625 2.455 5.129 2.971 7.785 2.971 2.775 0 6.131-.559 9.756-1.623-1.02-3.77-1.756-7.924-2.195-12.369-3.258-2.143-6.221-4.391-8.825-6.694z"/><path fill="#83CECA" d="M94.457 67.834c7.033-7.854 10.125-15.365 7.27-19.686-2.725-4.123-10.246-4.4-19.6-1.469 1.156 4.012 2.006 8.621 2.471 13.615 3.728 2.423 7.052 4.977 9.859 7.54z"/><path fill="#039A88" d="m94.529 69.252-.746-.68c-2.818-2.572-6.092-5.076-9.73-7.439l-.406-.264-.045-.482c-.453-4.881-1.273-9.398-2.436-13.432l-.27-.938.932-.293c4.229-1.324 8.023-1.998 11.281-1.998 4.51 0 7.779 1.338 9.451 3.869 3.066 4.641.385 12.26-7.357 20.904l-.674.753zm-8.982-9.531c3.25 2.137 6.215 4.383 8.828 6.693 6.393-7.389 8.889-14.127 6.518-17.715-1.623-2.457-5.129-2.973-7.783-2.973-2.775 0-6.133.561-9.756 1.625 1.019 3.77 1.757 7.924 2.193 12.37z"/><path fill="#83CECA" d="M77.027 55.859a93.982 93.982 0 0 1 7.57 4.436c-.465-4.994-1.314-9.604-2.471-13.615-4.033 1.262-8.404 3.125-12.881 5.529a95.089 95.089 0 0 1 7.782 3.65z"/><path fill="#039A88" d="m85.785 62.26-1.732-1.127a93.3 93.3 0 0 0-7.49-4.389 94.903 94.903 0 0 0-7.699-3.611l-1.945-.807 1.855-.998c4.492-2.412 8.885-4.297 13.055-5.604l.977-.305.283.982c1.197 4.152 2.039 8.795 2.506 13.799l.19 2.06zM71.578 52.119a97.411 97.411 0 0 1 5.914 2.854 96.695 96.695 0 0 1 5.896 3.369c-.434-3.713-1.086-7.195-1.945-10.391-3.177 1.057-6.484 2.453-9.865 4.168z"/><path fill="#83CECA" d="M63.158 82.256a94.932 94.932 0 0 1-7.57-4.436c.467 4.994 1.316 9.605 2.471 13.615 4.033-1.264 8.404-3.125 12.879-5.531a94.825 94.825 0 0 1-7.78-3.648z"/><path fill="#039A88" d="m57.381 92.697-.283-.984c-1.193-4.15-2.037-8.793-2.506-13.799l-.192-2.059 1.732 1.127a94.152 94.152 0 0 0 15.187 7.998l1.947.807-1.855.998c-4.473 2.406-8.865 4.291-13.055 5.605l-.975.307zm-.582-12.924c.434 3.713 1.086 7.195 1.943 10.391 3.189-1.063 6.496-2.459 9.865-4.17a96.518 96.518 0 0 1-11.808-6.221z"/><path fill="#83CECA" d="M55.504 61.213c.385-4.65 1.107-8.982 2.094-12.832-10.424-2.475-18.639-1.594-21.074 3.041-2.408 4.586 1.42 11.75 9.207 18.859 2.71-3.025 6.007-6.103 9.773-9.068z"/><path fill="#039A88" d="m45.803 71.701-.746-.682c-8.572-7.824-12.004-15.139-9.418-20.063 1.693-3.223 5.74-4.926 11.703-4.926 3.111 0 6.641.463 10.486 1.375l.992.236-.254.986c-.998 3.895-1.691 8.156-2.064 12.666l-.037.436-.342.268c-3.67 2.891-6.916 5.902-9.646 8.951l-.674.753zm1.539-23.67c-5.1 0-8.627 1.369-9.934 3.855-1.998 3.809 1.16 10.264 8.264 16.975 2.572-2.781 5.551-5.523 8.873-8.164.357-4.084.975-7.969 1.838-11.568-3.313-.729-6.35-1.098-9.041-1.098z"/><path fill="#83CECA" d="M94.457 67.834c-2.713 3.027-6.01 6.104-9.775 9.068-.385 4.648-1.107 8.98-2.096 12.832 10.424 2.471 18.641 1.594 21.076-3.041 2.408-4.586-1.42-11.75-9.205-18.859z"/><path fill="#039A88" d="M92.846 92.082h-.002c-3.111 0-6.641-.463-10.488-1.375l-.99-.234.252-.986c1-3.893 1.695-8.154 2.068-12.668l.035-.434.344-.27c3.674-2.893 6.92-5.902 9.648-8.949l.674-.752.746.682c8.568 7.824 12 15.139 9.416 20.063-1.694 3.22-5.74 4.923-11.703 4.923zm-9.043-3.096c3.313.727 6.35 1.096 9.041 1.096 5.1 0 8.627-1.369 9.934-3.854 2-3.809-1.16-10.264-8.26-16.975-2.57 2.779-5.551 5.52-8.875 8.164-.36 4.087-.977 7.97-1.84 11.569z"/><g><path fill="#83CECA" d="M78.314 81.494a94.81 94.81 0 0 1-7.377 4.41c4.055 1.68 7.988 2.963 11.648 3.83.988-3.852 1.711-8.184 2.096-12.832a96.533 96.533 0 0 1-6.367 4.592z"/><path fill="#039A88" d="m83.311 90.934-.955-.227c-3.777-.896-7.748-2.201-11.801-3.879l-1.947-.809 1.857-.996a94.344 94.344 0 0 0 13.6-8.908l1.803-1.416-.188 2.285c-.383 4.625-1.098 8.998-2.125 12.998l-.244.952zM73.268 85.76c2.936 1.135 5.814 2.063 8.588 2.766.711-2.959 1.252-6.121 1.613-9.434a97.057 97.057 0 0 1-10.201 6.668z"/></g><g><path fill="#83CECA" d="M61.871 56.619a96.434 96.434 0 0 1 7.375-4.41c-4.053-1.68-7.986-2.961-11.648-3.828-.986 3.85-1.709 8.182-2.094 12.832a97.288 97.288 0 0 1 6.367-4.594z"/><path fill="#039A88" d="m54.318 63.416.189-2.285c.383-4.623 1.096-8.996 2.121-12.998l.244-.951.955.225c3.783.896 7.752 2.201 11.801 3.879l1.945.807-1.854.998a95.516 95.516 0 0 0-7.299 4.363 96.037 96.037 0 0 0-6.299 4.547l-1.803 1.415zm4.01-13.828c-.709 2.961-1.248 6.123-1.609 9.436a96.839 96.839 0 0 1 10.2-6.67 75.264 75.264 0 0 0-8.591-2.766z"/></g><g><path fill="#83CECA" d="M85.002 69.057c0 2.691-.113 5.314-.32 7.846 3.766-2.965 7.063-6.041 9.775-9.068-2.807-2.563-6.131-5.117-9.859-7.539.261 2.811.404 5.743.404 8.761z"/><path fill="#039A88" d="m83.498 79.105.188-2.285c.211-2.572.316-5.184.316-7.764 0-2.9-.135-5.816-.4-8.67l-.192-2.056 1.732 1.125c3.73 2.424 7.09 4.994 9.988 7.639l.732.668-.66.738c-2.807 3.133-6.139 6.223-9.902 9.188l-1.802 1.417zm2.266-16.834a96.987 96.987 0 0 1 .076 12.41c2.664-2.211 5.078-4.482 7.201-6.777-2.186-1.929-4.623-3.816-7.277-5.633z"/></g><g><path fill="#83CECA" d="M55.184 69.057c0-2.688.111-5.313.32-7.844-3.766 2.965-7.063 6.043-9.773 9.068 2.805 2.563 6.129 5.115 9.857 7.539a94.622 94.622 0 0 1-.404-8.763z"/><path fill="#039A88" d="m56.775 79.785-1.732-1.127c-3.738-2.432-7.1-5.002-9.986-7.639l-.73-.668.66-.736c2.809-3.137 6.139-6.227 9.9-9.188l1.803-1.42-.188 2.287a94.413 94.413 0 0 0 .082 16.434l.191 2.057zm-9.627-9.574a74.487 74.487 0 0 0 7.275 5.631 95.78 95.78 0 0 1-.24-6.785c0-1.879.055-3.762.162-5.621-2.661 2.209-5.074 4.478-7.197 6.775z"/></g><g><path fill="#83CECA" d="M84.598 60.295a94.28 94.28 0 0 0-7.57-4.436 95.384 95.384 0 0 0-7.781-3.65 96.434 96.434 0 0 0-7.375 4.41 96.548 96.548 0 0 0-6.367 4.594 95.472 95.472 0 0 0 .084 16.608 94.964 94.964 0 0 0 15.349 8.084 95.124 95.124 0 0 0 7.377-4.41 97.066 97.066 0 0 0 6.367-4.592c.207-2.531.32-5.154.32-7.846 0-3.018-.143-5.95-.404-8.762z"/><path fill="#039A88" d="m70.994 87.01-.439-.182a96.365 96.365 0 0 1-15.511-8.17l-.406-.264-.045-.48a96.45 96.45 0 0 1-.084-16.783l.035-.436.344-.27a96.98 96.98 0 0 1 13.887-9.098l.418-.225.438.182a96.169 96.169 0 0 1 15.515 8.172l.404.264.045.48c.271 2.914.408 5.895.408 8.855 0 2.635-.109 5.301-.322 7.926l-.037.436-.342.27a96.358 96.358 0 0 1-13.889 9.098l-.419.225zm-14.453-9.764a94.367 94.367 0 0 0 14.342 7.551 94.904 94.904 0 0 0 12.838-8.412 95.438 95.438 0 0 0-.074-15.516 93.366 93.366 0 0 0-7.084-4.125 94.835 94.835 0 0 0-7.26-3.428 94.894 94.894 0 0 0-6.881 4.137 96.564 96.564 0 0 0-5.955 4.277 94.495 94.495 0 0 0 .074 15.516z"/></g><g><circle fill="#039A88" cx="77.496" cy="36.834" r="4.537"/></g><g><circle fill="#039A88" cx="45.836" cy="92.729" r="4.537"/></g><g><path fill="#039A88" d="M85.313 72.166a4.537 4.537 0 1 0 .005 9.073 4.537 4.537 0 0 0-.005-9.073z"/></g></svg>