<svg xmlns="http://www.w3.org/2000/svg" width="136.913" height="136.914" xml:space="preserve"><circle fill="#E23942" cx="68.456" cy="68.458" r="63.333"/><path fill="#6B4E15" d="M72.666 77.511a4.13 4.13 0 0 1-8.256 0V41.587c0-2.279 1.848-2.322 4.127-2.322 2.281 0 4.129.043 4.129 2.322v35.924zM102.221 77.511a4.13 4.13 0 0 1-8.258 0V41.587c0-2.279 1.848-2.322 4.129-2.322 2.281 0 4.129.043 4.129 2.322v35.924z"/><path fill="#6B4E15" d="M81.896 50.155v14.658L53.322 50.155v14.639L24.785 50.155v46.291c0 1.623 1.193 2.939 2.664 2.939h80.432c1.471 0 2.664-1.316 2.664-2.939V64.851L81.896 50.155z"/><path fill="#D2D2D2" d="M81.896 54.196v14.658L53.322 54.196v14.639L24.785 54.196v46.291c0 1.623 1.193 2.939 2.664 2.939h80.432c1.471 0 2.664-1.316 2.664-2.939V68.892L81.896 54.196z"/><path fill="#FFF" d="M44.883 89.604c0 .605-.443 1.098-.992 1.098h-9.117c-.549 0-.994-.492-.994-1.098V79.552c0-.605.445-1.098.994-1.098h9.117c.549 0 .992.492.992 1.098v10.052zM74.09 89.604c0 .605-.447 1.098-.996 1.098h-9.117c-.549 0-.992-.492-.992-1.098V79.552c0-.605.443-1.098.992-1.098h9.117c.549 0 .996.492.996 1.098v10.052zM102.105 89.604c0 .605-.441 1.098-.992 1.098h-9.115c-.549 0-.994-.492-.994-1.098V79.552c0-.605.445-1.098.994-1.098h9.115c.551 0 .992.492.992 1.098v10.052z"/><g opacity=".7"><ellipse fill="#FFF" cx="98.696" cy="31.831" rx="2.659" ry="2.484"/><ellipse fill="#FFF" cx="96.402" cy="29.3" rx="2.658" ry="2.482"/><ellipse fill="#FFF" cx="99.499" cy="30.292" rx="2.659" ry="2.484"/><ellipse fill="#FFF" cx="97.83" cy="35.554" rx="2.658" ry="2.482"/><ellipse fill="#FFF" cx="96.424" cy="33.021" rx="2.658" ry="2.484"/><ellipse fill="#FFF" cx="96.997" cy="26.591" rx="2.659" ry="2.484"/><ellipse fill="#FFF" cx="99.499" cy="27.81" rx="2.659" ry="2.482"/></g><g opacity=".7"><ellipse fill="#FFF" cx="69.84" cy="28.095" rx="4.057" ry="3.791"/><ellipse fill="#FFF" cx="66.342" cy="24.231" rx="4.057" ry="3.789"/><ellipse fill="#FFF" cx="71.066" cy="25.747" rx="4.057" ry="3.791"/><path fill="#FFF" d="M72.576 33.774c0 2.094-1.813 3.79-4.057 3.79-2.238 0-4.057-1.696-4.057-3.79s1.818-3.789 4.057-3.789c2.245 0 4.057 1.696 4.057 3.789z"/><path fill="#FFF" d="M70.428 29.91c0 2.093-1.814 3.79-4.053 3.79-2.246 0-4.057-1.697-4.057-3.79 0-2.094 1.811-3.791 4.057-3.791 2.238 0 4.053 1.697 4.053 3.791z"/><ellipse fill="#FFF" cx="67.248" cy="20.099" rx="4.057" ry="3.791"/><ellipse fill="#FFF" cx="71.066" cy="21.956" rx="4.057" ry="3.791"/></g></svg>