<svg xmlns="http://www.w3.org/2000/svg" width="136.914" height="136.914" xml:space="preserve"><circle fill="#344E5D" cx="68.457" cy="68.457" r="63.333"/><path fill="#D35959" d="M69.437 28.656c-22.37 0-40.504 18.135-40.504 40.504s18.134 40.504 40.504 40.504c22.369 0 40.504-18.135 40.504-40.504S91.806 28.656 69.437 28.656zm0 75.008c-19.057 0-34.504-15.448-34.504-34.504S50.38 34.656 69.437 34.656c19.056 0 34.504 15.448 34.504 34.504s-15.448 34.504-34.504 34.504z"/><path fill="#D35959" d="M69.437 40.156c-16.019 0-29.004 12.986-29.004 29.004s12.985 29.004 29.004 29.004S98.441 85.178 98.441 69.16 85.456 40.156 69.437 40.156zm0 53.711c-13.646 0-24.708-11.062-24.708-24.707s11.063-24.707 24.708-24.707S94.144 55.515 94.144 69.16 83.083 93.867 69.437 93.867z"/><path fill="#CD4F4F" d="M69.437 50.156c-10.496 0-19.004 8.509-19.004 19.004s8.508 19.004 19.004 19.004c10.495 0 19.004-8.509 19.004-19.004s-8.509-19.004-19.004-19.004zm0 34.193c-8.389 0-15.189-6.8-15.189-15.188s6.801-15.188 15.189-15.188 15.188 6.8 15.188 15.188-6.799 15.188-15.188 15.188z"/><path fill="#C54342" d="M69.437 75.523a6.363 6.363 0 1 1 0-12.725 6.363 6.363 0 0 1 0 12.725z"/><path fill="#C93435" d="m89.483 50.309 9.982 2.303 16.509-16.509-9.981-2.304z"/><path fill="#E79E2D" d="m108.712 35.227-1.001-3.832-3.831-1-36.898 36.896v4.832h4.833z"/><path fill="#F2BE3E" d="m107.711 31.395-3.831-1-36.898 36.896v4.832z"/><path fill="#F9CA62" d="m108.708 35.354-4.014-.966-.944-3.991 4.013.967z"/><g><path fill="#C93435" d="m76.984 47.475 9.981 2.303 16.51-16.509-9.982-2.304z"/></g></svg>