<svg xmlns="http://www.w3.org/2000/svg" width="136.913" height="136.914" xml:space="preserve"><circle fill="#344E5D" cx="68.456" cy="68.458" r="63.333"/><path fill="#67B8CB" d="M73.041 62.782h35.516c2.531 0 4.584-6.766 4.584-6.766s-2.053-6.766-4.584-6.766H73.041c-2.531.001-2.531 13.532 0 13.532z"/><path fill="#E5E5E5" d="M99.391 54.585H80.164c-1.125 0-2.035.625-2.035 1.398 0 .771.91 1.398 2.035 1.398h19.227c1.125 0 2.035-.627 2.035-1.398 0-.773-.91-1.398-2.035-1.398zM107.248 54.585h-2.039c-1.125 0-2.035.625-2.035 1.398 0 .771.91 1.398 2.035 1.398h2.039c1.125 0 2.035-.627 2.035-1.398 0-.773-.91-1.398-2.035-1.398z"/><path fill="#67B8CB" d="M69.332 34.991H33.816c-2.531 0-4.584 6.766-4.584 6.766s2.053 6.766 4.584 6.766h35.516c2.531-.001 2.531-13.532 0-13.532z"/><path fill="#E5E5E5" d="M42.982 43.188h19.227c1.125 0 2.035-.625 2.035-1.398s-.91-1.4-2.035-1.4H42.982c-1.125 0-2.035.627-2.035 1.4s.91 1.398 2.035 1.398zM35.125 43.188h2.039c1.125 0 2.037-.625 2.037-1.398s-.912-1.4-2.037-1.4h-2.039c-1.125 0-2.035.627-2.035 1.4s.91 1.398 2.035 1.398z"/><g><path fill="#67B8CB" d="M69.332 65.642H33.816c-2.531 0-4.584 6.766-4.584 6.766s2.053 6.766 4.584 6.766h35.516c2.531-.001 2.531-13.532 0-13.532z"/><path fill="#E5E5E5" d="M42.982 73.841h19.227c1.125 0 2.035-.627 2.035-1.4 0-.771-.91-1.398-2.035-1.398H42.982c-1.125 0-2.035.627-2.035 1.398 0 .773.91 1.4 2.035 1.4zM35.125 73.841h2.039c1.125 0 2.037-.627 2.037-1.4 0-.771-.912-1.398-2.037-1.398h-2.039c-1.125 0-2.035.627-2.035 1.398 0 .773.91 1.4 2.035 1.4z"/></g><g><ellipse fill="#9D5D26" cx="71.159" cy="116.913" rx="15.425" ry="5.426"/><ellipse fill="#AE722D" cx="71.159" cy="115.894" rx="14.261" ry="4.074"/><path fill="#AE722D" d="M75.877 114.075c0 4.701-9.168 4.701-9.168 0V27.644c0-4.701 2.053-8.514 4.584-8.514 2.531 0 4.584 3.813 4.584 8.514v86.431z"/><path fill="#BB813C" d="M75.877 114.075c0 3.482-5.029 4.385-7.637 2.709-.914-.586-1.447-91.111 3.053-97.654 2.531 0 4.584 3.813 4.584 8.514v86.431z"/></g></svg>