<svg xmlns="http://www.w3.org/2000/svg" width="136.913" height="136.914" xml:space="preserve"><circle fill="#9CBDBF" cx="68.456" cy="68.457" r="63.333"/><g fill-rule="evenodd" clip-rule="evenodd"><path fill="#626463" d="M71.631 70.05 44.344 97.337l-4.492-3.531 27.766-27.768 4.013 4.012z"/><path fill="#4C4D4D" d="M45.025 97.839c-7.182 8.625-17.24 5.029-19.035-3.947-.705-3.525 4.668-8.266 6.465-5.029-1.436 12.213 7.141 4.264 7.141 4.264s2.273.4 3.666 1.791c1.396 1.394 1.763 2.921 1.763 2.921z"/><path fill="#E84849" d="M97.031 40.024c31.391 31.393.016 70.439.016 70.439-.438-11.443-11.268-22.27-22.271-22.27 0 0-2.375-9.432-9.254-16.309-6.877-6.877-15.441-8.389-15.441-8.389.566-10.439-9.471-21.477-21.977-21.977 0 .003 37.535-32.884 68.927-1.494z"/><path fill="#F06668" d="M97.031 40.024c5.996 5.998-17.637 42.326-22.256 48.17 0 0-2.375-9.432-9.254-16.309-6.877-6.877-15.441-8.389-15.441-8.389 5.328-5.13 42.541-27.88 46.951-23.472z"/><path fill="#4B4A4B" d="M99.199 43.026c-.912.916-2.811.498-4.24-.93-1.428-1.43-1.846-3.328-.934-4.24.914-.912 2.811-.496 4.238.934 1.432 1.43 1.848 3.326.936 4.236z"/></g></svg>