<svg xmlns="http://www.w3.org/2000/svg" width="136.913" height="136.914" xml:space="preserve"><circle fill="#344E5D" cx="68.456" cy="68.457" r="63.333"/><path fill="#CDCCCB" d="M93.313 46.789H8.928A64.115 64.115 0 0 0 7.834 50.1h85.479v-3.311zM12.822 63.344c0 .676-.15 1.314-.408 1.895h80.898v-3.313H12.578c.145.451.244.92.244 1.418zM11.996 77.545c0 .705-.168 1.369-.449 1.969h81.766v-3.309H11.777c.129.428.219.871.219 1.34zM11.58 91.277c0 .748-.191 1.445-.504 2.07h82.236v-3.309h-81.92c.11.398.188.808.188 1.239zM23.348 105.479c0 .652-.135 1.273-.377 1.838h70.342v-3.313H23.088c.156.467.26.957.26 1.475zM93.313 118.904H30.176a63.821 63.821 0 0 0 4.809 3.313h58.328v-3.313z"/><g><circle fill="#E84849" cx="57.836" cy="48.443" r="4.67"/><path fill="#FFF" d="M54.109 49.199c-.822-.822-.105-2.867.711-3.688.824-.818 2.869-1.535 3.689-.713.823.819-3.577 5.223-4.4 4.401z"/><circle fill="#E84849" cx="47.649" cy="48.443" r="4.669"/><path fill="#FFF" d="M43.928 49.199c-.822-.822-.107-2.867.715-3.688.82-.818 2.863-1.535 3.684-.713.821.819-3.581 5.223-4.399 4.401z"/><circle fill="#E84849" cx="67.571" cy="48.443" r="4.669"/><path fill="#FFF" d="M63.848 49.199c-.822-.822-.107-2.867.713-3.688.822-.818 2.867-1.535 3.686-.713.821.819-3.581 5.223-4.399 4.401z"/><circle fill="#E84849" cx="77.204" cy="48.443" r="4.671"/><path fill="#FFF" d="M73.48 49.199c-.822-.822-.107-2.867.713-3.688.82-.818 2.865-1.535 3.688-.713.822.819-3.58 5.223-4.401 4.401z"/><circle fill="#E84849" cx="87.035" cy="48.443" r="4.67"/><path fill="#FFF" d="M83.311 49.199c-.82-.822-.107-2.867.713-3.688.822-.818 2.869-1.535 3.686-.713.821.819-3.577 5.223-4.399 4.401z"/><g><circle fill="#E84849" cx="29.278" cy="63.344" r="4.669"/><path fill="#FFF" d="M25.553 64.096c-.824-.818-.107-2.863.713-3.684.822-.822 2.867-1.537 3.689-.717.818.823-3.582 5.225-4.402 4.401z"/><path fill="#E84849" d="M14.424 63.344a4.671 4.671 0 0 1 9.34 0 4.668 4.668 0 0 1-4.668 4.668 4.669 4.669 0 0 1-4.672-4.668z"/><path fill="#FFF" d="M15.371 64.096c-.824-.818-.107-2.863.713-3.684.822-.822 2.865-1.537 3.688-.717.818.823-3.581 5.225-4.401 4.401z"/><circle fill="#E84849" cx="67.571" cy="63.344" r="4.669"/><path fill="#FFF" d="M63.848 64.096c-.822-.818-.107-2.863.713-3.684.822-.822 2.867-1.537 3.686-.717.821.823-3.581 5.225-4.399 4.401z"/><g><circle fill="#E84849" cx="77.204" cy="63.344" r="4.671"/><path fill="#FFF" d="M73.48 64.096c-.822-.818-.107-2.863.713-3.684.82-.822 2.865-1.537 3.688-.717.822.823-3.58 5.225-4.401 4.401z"/></g><g><circle fill="#E84849" cx="87.035" cy="63.344" r="4.67"/><path fill="#FFF" d="M83.311 64.096c-.82-.818-.107-2.863.713-3.684.822-.822 2.869-1.537 3.686-.717.821.823-3.577 5.225-4.399 4.401z"/></g></g><g><path fill="#E84849" d="M23.365 77.545a4.67 4.67 0 0 1 9.34 0 4.668 4.668 0 0 1-4.668 4.668 4.669 4.669 0 0 1-4.672-4.668z"/><path fill="#FFF" d="M24.311 78.299c-.82-.82-.107-2.865.713-3.686.822-.82 2.867-1.537 3.689-.717.818.823-3.58 5.223-4.402 4.403z"/><circle fill="#E84849" cx="17.853" cy="77.545" r="4.671"/><path fill="#FFF" d="M14.127 78.299c-.82-.82-.107-2.865.715-3.686s2.865-1.537 3.688-.717c.82.823-3.581 5.223-4.403 4.403z"/><circle fill="#E84849" cx="67.571" cy="77.545" r="4.669"/><path fill="#FFF" d="M63.848 78.299c-.822-.82-.107-2.865.713-3.686.822-.82 2.867-1.537 3.686-.717.821.823-3.581 5.223-4.399 4.403z"/><g><circle fill="#E84849" cx="77.204" cy="77.545" r="4.671"/><path fill="#FFF" d="M73.48 78.299c-.822-.82-.107-2.865.713-3.686s2.865-1.537 3.688-.717c.822.823-3.58 5.223-4.401 4.403z"/></g><g><circle fill="#E84849" cx="87.035" cy="77.545" r="4.67"/><path fill="#FFF" d="M83.311 78.299c-.82-.82-.107-2.865.713-3.686.822-.82 2.869-1.537 3.686-.717.821.823-3.577 5.223-4.399 4.403z"/></g></g><g><path fill="#E84849" d="M53.166 91.277a4.67 4.67 0 1 1 4.668 4.672 4.669 4.669 0 0 1-4.668-4.672z"/><path fill="#FFF" d="M54.109 92.033c-.822-.82-.105-2.867.711-3.686.824-.82 2.869-1.537 3.689-.715.823.821-3.577 5.223-4.4 4.401z"/><path fill="#E84849" d="M12.768 91.277a4.67 4.67 0 1 1 9.34.004 4.67 4.67 0 0 1-9.34-.004z"/><path fill="#FFF" d="M13.715 92.033c-.822-.82-.107-2.867.711-3.686.822-.82 2.867-1.537 3.689-.715.821.821-3.582 5.223-4.4 4.401z"/><path fill="#E84849" d="M62.902 91.277a4.67 4.67 0 1 1 4.668 4.672 4.669 4.669 0 0 1-4.668-4.672z"/><path fill="#FFF" d="M63.848 92.033c-.822-.82-.107-2.867.713-3.686.822-.82 2.867-1.537 3.686-.715.821.821-3.581 5.223-4.399 4.401z"/><g><path fill="#E84849" d="M72.533 91.277a4.671 4.671 0 1 1 9.342.006 4.671 4.671 0 0 1-9.342-.006z"/><path fill="#FFF" d="M73.48 92.033c-.822-.82-.107-2.867.713-3.686.82-.82 2.865-1.537 3.688-.715.822.821-3.58 5.223-4.401 4.401z"/></g><g><path fill="#E84849" d="M82.365 91.277a4.671 4.671 0 0 1 9.34 0 4.67 4.67 0 1 1-9.34 0z"/><path fill="#FFF" d="M83.311 92.033c-.82-.82-.107-2.867.713-3.686.822-.82 2.869-1.537 3.686-.715.821.821-3.577 5.223-4.399 4.401z"/></g></g><g><path fill="#E84849" d="M24.197 105.479a4.667 4.667 0 0 1 4.668-4.668 4.67 4.67 0 0 1 0 9.34 4.668 4.668 0 0 1-4.668-4.672z"/><path fill="#FFF" d="M25.139 106.232c-.822-.818-.105-2.865.713-3.684.822-.82 2.867-1.537 3.689-.715.82.819-3.58 5.222-4.402 4.399z"/><path fill="#B58755" d="M97.277 42.354a3.968 3.968 0 0 0-3.965 3.969v80.4a63.053 63.053 0 0 0 7.932-4.07V46.322a3.967 3.967 0 0 0-3.967-3.968z"/><path fill="#D5CEA9" d="M12.578 61.926c-.602-1.881-2.344-3.252-4.424-3.252-.869 0-1.672.254-2.369.666-.031.215-.055.434-.082.648.969-.604 2.453-.965 3.125-.293.34.34-.217 1.291-1.039 2.23-.766.877-1.76 1.738-2.494 2.096-.029.406-.07.809-.092 1.217-.027.551-.027 1.107-.041 1.662a4.63 4.63 0 0 0 2.992 1.111 4.665 4.665 0 0 0 4.26-2.773c.258-.58.408-1.219.408-1.895a4.6 4.6 0 0 0-.244-1.417z"/><path fill="#FFF" d="M8.828 59.695c-.672-.672-2.156-.311-3.125.293-.086.645-.18 1.287-.246 1.938-.072.693-.115 1.396-.162 2.096.734-.357 1.729-1.219 2.494-2.096.822-.94 1.379-1.891 1.039-2.231z"/><path fill="#D5CEA9" d="M11.777 76.205c-.58-1.92-2.342-3.328-4.451-3.328-.719 0-1.391.176-1.998.465.016.193.027.389.045.584.926-.424 2.066-.594 2.629-.029.348.35-.248 1.344-1.109 2.309-.352.395-.744.781-1.139 1.121a69.644 69.644 0 0 0 .868 4.815c.232.037.463.072.705.072a4.66 4.66 0 0 0 4.221-2.699c.281-.6.449-1.264.449-1.969a4.649 4.649 0 0 0-.22-1.341z"/><path fill="#FFF" d="M8.002 73.896c-.563-.564-1.703-.395-2.629.029.064.764.146 1.523.238 2.279.045.375.09.748.143 1.121.395-.34.787-.727 1.139-1.121.861-.964 1.457-1.958 1.109-2.308z"/><path fill="#D5CEA9" d="M11.393 90.039a4.665 4.665 0 0 0-3.59-3.34c.338 1.127.699 2.24 1.098 3.34a62.624 62.624 0 0 0 1.307 3.309c.115.27.244.533.363.801.193-.248.363-.516.506-.801a4.602 4.602 0 0 0 .504-2.07 4.693 4.693 0 0 0-.188-1.239z"/><path fill="#E84849" d="M23.088 104.004c-.619-1.85-2.346-3.193-4.406-3.193-1.457 0-2.74.682-3.596 1.725.086.137.174.273.262.41.104-.15.211-.287.322-.396.822-.82 2.865-1.537 3.688-.715.332.332-.195 1.25-.99 2.17a12.13 12.13 0 0 1-1.369 1.352c.477.664.965 1.318 1.465 1.961.656.84 1.33 1.664 2.025 2.471a4.674 4.674 0 0 0 2.859-4.309c0-.519-.104-1.009-.26-1.476z"/><path fill="#FFF" d="M19.357 101.834c-.822-.822-2.865-.105-3.688.715a2.71 2.71 0 0 0-.322.396c.23.354.453.711.689 1.059.311.459.639.902.961 1.352.477-.398.957-.873 1.369-1.352.796-.92 1.323-1.838.991-2.17z"/><g><path fill="#E84849" d="M33.932 105.479a4.67 4.67 0 1 1 9.339.003 4.67 4.67 0 0 1-9.339-.003z"/><path fill="#FFF" d="M34.877 106.232c-.822-.818-.105-2.865.713-3.684.822-.82 2.865-1.537 3.688-.715.82.819-3.581 5.222-4.401 4.399z"/></g><g><path fill="#E84849" d="M43.564 105.479a4.669 4.669 0 0 1 9.338 0 4.67 4.67 0 1 1-9.338 0z"/><path fill="#FFF" d="M44.51 106.232c-.822-.818-.107-2.865.715-3.684.82-.82 2.865-1.537 3.686-.715.821.819-3.579 5.222-4.401 4.399z"/></g><g><circle fill="#E84849" cx="87.035" cy="105.479" r="4.67"/><path fill="#FFF" d="M83.311 106.232c-.82-.818-.107-2.865.713-3.684.822-.82 2.869-1.537 3.686-.715.821.819-3.577 5.222-4.399 4.399z"/></g></g><g><path fill="#D5CEA9" d="M52.258 120.25c0-2.576 2.09-4.67 4.67-4.67a4.67 4.67 0 1 1-4.67 4.67z"/><path fill="#FFF" d="M53.203 121.004c-.822-.818-.107-2.867.711-3.686.822-.82 2.869-1.535 3.689-.713.823.821-3.582 5.221-4.4 4.399z"/></g><g><path fill="#D5CEA9" d="M42.455 120.25a4.674 4.674 0 0 1 4.674-4.67 4.67 4.67 0 1 1-4.674 4.67z"/><path fill="#FFF" d="M43.402 121.004c-.822-.818-.107-2.867.715-3.686.822-.82 2.865-1.535 3.684-.713.822.821-3.578 5.221-4.399 4.399z"/></g><g><path fill="#D5CEA9" d="M62.352 120.25c0-2.576 2.092-4.67 4.67-4.67s4.67 2.094 4.67 4.67a4.67 4.67 0 0 1-9.34 0z"/><path fill="#FFF" d="M63.297 121.004c-.82-.818-.107-2.867.715-3.686.822-.82 2.865-1.535 3.688-.713.818.821-3.581 5.221-4.403 4.399z"/></g><g><path fill="#D5CEA9" d="M72.426 120.25a4.672 4.672 0 0 1 4.668-4.67 4.67 4.67 0 1 1-4.668 4.67z"/><path fill="#FFF" d="M73.371 121.004c-.822-.818-.107-2.867.715-3.686.818-.82 2.865-1.535 3.684-.713.822.821-3.577 5.221-4.399 4.399z"/></g><g><path fill="#D5CEA9" d="M82.527 120.25a4.672 4.672 0 0 1 4.668-4.67 4.67 4.67 0 1 1-4.668 4.67z"/><path fill="#FFF" d="M83.473 121.004c-.822-.818-.107-2.867.713-3.686.824-.82 2.867-1.535 3.686-.713.821.821-3.577 5.221-4.399 4.399z"/></g></g></svg>