<svg xmlns="http://www.w3.org/2000/svg" width="136.913" height="136.914" xml:space="preserve"><circle fill="#40BCA3" cx="68.456" cy="68.456" r="63.333"/><path fill="#E84849" d="M20.088 68.417c0-26.927 21.826-48.756 48.756-48.756 26.928 0 48.754 21.829 48.754 48.756 0 26.928-21.826 48.757-48.754 48.757-26.93 0-48.756-21.829-48.756-48.757z"/><circle fill="#F6A2A3" cx="68.843" cy="68.417" r="42.122"/><ellipse fill="#E9E9EA" cx="68.843" cy="68.417" rx="38.741" ry="37.847"/><ellipse fill="#E9E9EA" cx="68.844" cy="70.985" rx="38.742" ry="37.847"/><g fill="#626463"><circle cx="69.14" cy="68.075" r="6.47"/><path d="M69.766 69.594c-.459.46-1.41.254-2.121-.458-.713-.713-.918-1.663-.457-2.122l15.023-15.026c.459-.46 1.41-.255 2.123.46.713.711.918 1.662.457 2.121L69.766 69.594z"/><path d="M67.645 68.918a1.347 1.347 0 0 1 0-1.906 1.35 1.35 0 0 1 1.906 0l21.785 21.787c.527.526.527 1.38 0 1.907a1.35 1.35 0 0 1-1.906 0L67.645 68.918z"/></g><path fill="none" d="M68.844 33.138c-19.133 0-35.014 13.552-38.164 31.361h76.328c-3.153-17.81-19.033-31.361-38.164-31.361z"/><path fill="#DDDFDF" d="M68.871 34.625c30.912.258 38.482 28.994 38.482 28.994-2.883-18.66-19.041-33.049-38.51-33.049s-35.57 14.389-38.451 33.049c.001 0 7.567-29.252 38.479-28.994z"/></svg>