<svg xmlns="http://www.w3.org/2000/svg" width="136.913" height="136.914" xml:space="preserve"><circle fill="#65A844" cx="68.456" cy="68.458" r="63.333"/><path fill="#7D3719" d="M68.861 52.858s1.264-8.635-.895-14.129c-2.158-5.496 2.883.557 2.883.557l-.957 13.758-1.031-.186zM69.244 99.702l-.607 2.561 1.707-.936.931 1.295.795-1.334 1.573.463-1.784-2.926z"/><radialGradient id="a" cx="2375.296" cy="-100.163" r="56.061" gradientTransform="rotate(-1.146 9901.365 118191.226) scale(1.0001)" gradientUnits="userSpaceOnUse"><stop offset="0" style="stop-color:#e92c25"/><stop offset=".6" style="stop-color:#e92c25"/></radialGradient><path fill="url(#a)" d="M82.393 44.401c-4.557.094-8.99 2.027-12.715 5.207-3.801-2.934-8.227-4.625-12.701-4.535-11.993.237-23.954 11.989-18.825 29.989 4.615 16.193 11.898 26.746 23.887 26.51 3.332-.066 7.555-.809 8.846-1.76 1.59.977 5.443 1.313 8.678 1.248 11.988-.236 18.852-11.068 22.826-27.436 4.41-18.186-8.006-29.459-19.996-29.223z"/><g><path fill="#FFF" d="M83.986 52.892s7.316 2.594 9.75 9.699c0 0 2.965-12.754-9.75-9.699z"/></g><g><path fill="#1D9E49" d="M56.809 38.481c.318 1.797 3.75 3.813 7.43 3.152 3.674-.656 6.396-2.645 6.074-4.443-.774-4.334-13.504 1.291-13.504 1.291z"/></g></svg>