<svg xmlns="http://www.w3.org/2000/svg" width="136.913" height="136.914" xml:space="preserve"><circle fill="#3CB881" cx="68.456" cy="68.458" r="63.333"/><path fill="#CC3432" d="m77.652 108.973-8.973-6.379 20.484 14.561a1.112 1.112 0 0 0 1.157.082c.369-.189.602-.572.604-.99l-.002-107.01a62.908 62.908 0 0 0-13.27-3.441v103.177zM47.041 117.237c.369.191.816.16 1.156-.082l11.125-7.908V5.788a62.986 62.986 0 0 0-12.885 3.273v107.186c.001.418.235.798.604.99z"/><path fill="#B42928" d="m59.322 109.247 9.358-6.653-9.358 6.653zM77.652 5.795a63.664 63.664 0 0 0-9.197-.672c-3.102 0-6.15.232-9.133.664v103.459l9.357-6.652 8.973 6.379V5.795z"/><g><path fill="#DDA027" d="M84.973 59.932a.767.767 0 0 0-.619-.525l-10.352-1.504-4.633-9.383c-.256-.523-1.119-.523-1.379.002l-4.631 9.381-10.352 1.504a.77.77 0 0 0-.428 1.312l7.494 7.301-1.77 10.313a.772.772 0 0 0 .307.754c.236.17.551.193.811.057l9.258-4.869 9.262 4.869a.766.766 0 0 0 1.113-.81l-1.768-10.311 7.492-7.303a.768.768 0 0 0 .195-.788z"/></g></svg>